<?xml version="1.0" encoding="UTF-8"?>
<!--Generator: Apple Native CoreSVG 341-->
<!DOCTYPE svg
PUBLIC "-//W3C//DTD SVG 1.1//EN"
       "http://www.w3.org/Graphics/SVG/1.1/DTD/svg11.dtd">
<svg version="1.1" xmlns="http://www.w3.org/2000/svg" xmlns:xlink="http://www.w3.org/1999/xlink" viewBox="0 0 22.0716 20.5455">
 <g>
  <rect height="20.5455" opacity="0" width="22.0716" x="0" y="0"/>
  <path d="M10.7038 6.71317C10.7038 7.09403 10.3717 7.43582 9.97134 7.43582C9.57095 7.43582 9.24868 7.09403 9.24868 6.71317C9.24868 6.32254 9.57095 5.98074 9.97134 5.98074C10.3717 5.98074 10.7038 6.32254 10.7038 6.71317Z" fill="white" fill-opacity="0.85"/>
  <path d="M8.38931 6.71317C8.38931 7.09403 8.06704 7.43582 7.66665 7.43582C7.26626 7.43582 6.93423 7.09403 6.93423 6.71317C6.93423 6.32254 7.26626 5.98074 7.66665 5.98074C8.06704 5.98074 8.38931 6.32254 8.38931 6.71317Z" fill="white" fill-opacity="0.85"/>
  <path d="M6.08462 6.71317C6.08462 7.09403 5.76235 7.43582 5.3522 7.43582C4.95181 7.43582 4.62954 7.09403 4.62954 6.71317C4.62954 6.32254 4.95181 5.98074 5.3522 5.98074C5.76235 5.98074 6.08462 6.32254 6.08462 6.71317Z" fill="white" fill-opacity="0.85"/>
  <path d="M19.9127 6.53739L19.9127 12.5175L18.5065 11.0981L18.5065 6.53739C18.5065 5.27762 17.8034 4.57449 16.5436 4.57449L5.16665 4.57449C3.91665 4.57449 3.20376 5.27762 3.20376 6.53739L3.20376 14.0179C3.20376 15.2776 3.91665 15.9807 5.16665 15.9807L14.8759 15.9807L14.8542 17.1136C14.8519 17.2124 14.8586 17.3074 14.8762 17.3968L5.16665 17.3968C3.00845 17.3968 1.79751 16.1858 1.79751 14.0179L1.79751 6.53739C1.79751 4.36942 3.00845 3.15848 5.16665 3.15848L16.778 3.15848C18.7799 3.15848 19.9127 4.36942 19.9127 6.53739Z" fill="white" fill-opacity="0.85"/>
  <path d="M19.7858 19.3499C20.1471 19.2034 20.3229 18.7932 20.1667 18.4319L18.985 15.6975L20.5866 15.5999C20.8991 15.5804 21.0553 15.2874 20.8307 15.053L16.651 10.8343C16.4362 10.6194 16.1334 10.7366 16.1237 11.0491L16.0065 17.1429C15.9967 17.4651 16.3776 17.5628 16.5924 17.3577L17.735 16.2151L18.8483 18.9788C18.9948 19.3304 19.4245 19.4964 19.7858 19.3499Z" fill="white" fill-opacity="0.85"/>
 </g>
</svg>
