<?xml version="1.0" encoding="UTF-8"?>
<!--Generator: Apple Native CoreSVG 341-->
<!DOCTYPE svg
PUBLIC "-//W3C//DTD SVG 1.1//EN"
       "http://www.w3.org/Graphics/SVG/1.1/DTD/svg11.dtd">
<svg version="1.1" xmlns="http://www.w3.org/2000/svg" xmlns:xlink="http://www.w3.org/1999/xlink" viewBox="0 0 3300 2200">
 <!--glyph: "", point size: 100.0, font version: "20.0d10e1", template writer version: "138.0.0"-->
 <style>.monochrome-0 {-sfsymbols-motion-group:2;-sfsymbols-layer-tags:6b8eba6b65ade46b}
.monochrome-1 {-sfsymbols-motion-group:1;-sfsymbols-layer-tags:6b8eba6b65ade46b}
.monochrome-2 {-sfsymbols-motion-group:0;-sfsymbols-layer-tags:6b8eba6b65ade46b}

.multicolor-0:tintColor {-sfsymbols-motion-group:2;-sfsymbols-layer-tags:6b8eba6b65ade46b}
.multicolor-1:tintColor {opacity:0.0;-sfsymbols-clear-behind:true;-sfsymbols-motion-group:1;-sfsymbols-layer-tags:6b8eba6b65ade46b}
.multicolor-2:tintColor {opacity:0.0;-sfsymbols-clear-behind:true;-sfsymbols-motion-group:0;-sfsymbols-layer-tags:6b8eba6b65ade46b}

.hierarchical-0:primary {-sfsymbols-motion-group:2;-sfsymbols-layer-tags:6b8eba6b65ade46b}
.hierarchical-1:primary {-sfsymbols-motion-group:1;-sfsymbols-layer-tags:6b8eba6b65ade46b}
.hierarchical-2:primary {-sfsymbols-motion-group:0;-sfsymbols-layer-tags:6b8eba6b65ade46b}

.SFSymbolsPreviewWireframe {fill:none;opacity:1.0;stroke:black;stroke-width:0.5}
</style>
 <g id="Notes">
  <rect height="2200" id="artboard" style="fill:white;opacity:1" width="3300" x="0" y="0"/>
  <line style="fill:none;stroke:black;opacity:1;stroke-width:0.5;" x1="263" x2="3036" y1="292" y2="292"/>
  <text style="stroke:none;fill:black;font-family:sans-serif;font-size:13;font-weight:bold;" transform="matrix(1 0 0 1 263 322)">Weight/Scale Variations</text>
  <text style="stroke:none;fill:black;font-family:sans-serif;font-size:13;text-anchor:middle;" transform="matrix(1 0 0 1 559.711 322)">Ultralight</text>
  <text style="stroke:none;fill:black;font-family:sans-serif;font-size:13;text-anchor:middle;" transform="matrix(1 0 0 1 856.422 322)">Thin</text>
  <text style="stroke:none;fill:black;font-family:sans-serif;font-size:13;text-anchor:middle;" transform="matrix(1 0 0 1 1153.13 322)">Light</text>
  <text style="stroke:none;fill:black;font-family:sans-serif;font-size:13;text-anchor:middle;" transform="matrix(1 0 0 1 1449.84 322)">Regular</text>
  <text style="stroke:none;fill:black;font-family:sans-serif;font-size:13;text-anchor:middle;" transform="matrix(1 0 0 1 1746.56 322)">Medium</text>
  <text style="stroke:none;fill:black;font-family:sans-serif;font-size:13;text-anchor:middle;" transform="matrix(1 0 0 1 2043.27 322)">Semibold</text>
  <text style="stroke:none;fill:black;font-family:sans-serif;font-size:13;text-anchor:middle;" transform="matrix(1 0 0 1 2339.98 322)">Bold</text>
  <text style="stroke:none;fill:black;font-family:sans-serif;font-size:13;text-anchor:middle;" transform="matrix(1 0 0 1 2636.69 322)">Heavy</text>
  <text style="stroke:none;fill:black;font-family:sans-serif;font-size:13;text-anchor:middle;" transform="matrix(1 0 0 1 2933.4 322)">Black</text>
  <line style="fill:none;stroke:black;opacity:1;stroke-width:0.5;" x1="263" x2="3036" y1="1903" y2="1903"/>
  <g transform="matrix(0.2 0 0 0.2 263 1933)">
   <path d="m46.2402 4.15039c21.7773 0 39.4531-17.627 39.4531-39.4043s-17.6758-39.4043-39.4531-39.4043c-21.7285 0-39.4043 17.627-39.4043 39.4043s17.6758 39.4043 39.4043 39.4043Zm0-7.42188c-17.6758 0-31.9336-14.3066-31.9336-31.9824s14.2578-31.9824 31.9336-31.9824 31.9824 14.3066 31.9824 31.9824-14.3066 31.9824-31.9824 31.9824Zm-17.9688-31.9824c0 2.14844 1.51367 3.61328 3.75977 3.61328h10.498v10.5957c0 2.19727 1.46484 3.71094 3.61328 3.71094 2.24609 0 3.71094-1.51367 3.71094-3.71094v-10.5957h10.5957c2.19727 0 3.71094-1.46484 3.71094-3.61328 0-2.19727-1.51367-3.71094-3.71094-3.71094h-10.5957v-10.5469c0-2.24609-1.46484-3.75977-3.71094-3.75977-2.14844 0-3.61328 1.51367-3.61328 3.75977v10.5469h-10.498c-2.24609 0-3.75977 1.51367-3.75977 3.71094Z"/>
  </g>
  <g transform="matrix(0.2 0 0 0.2 281.506 1933)">
   <path d="m58.5449 14.5508c27.4902 0 49.8047-22.3145 49.8047-49.8047s-22.3145-49.8047-49.8047-49.8047-49.8047 22.3145-49.8047 49.8047 22.3145 49.8047 49.8047 49.8047Zm0-8.30078c-22.9492 0-41.5039-18.5547-41.5039-41.5039s18.5547-41.5039 41.5039-41.5039 41.5039 18.5547 41.5039 41.5039-18.5547 41.5039-41.5039 41.5039Zm-22.6562-41.5039c0 2.39258 1.66016 4.00391 4.15039 4.00391h14.3555v14.4043c0 2.44141 1.66016 4.15039 4.05273 4.15039 2.44141 0 4.15039-1.66016 4.15039-4.15039v-14.4043h14.4043c2.44141 0 4.15039-1.61133 4.15039-4.00391 0-2.44141-1.70898-4.15039-4.15039-4.15039h-14.4043v-14.3555c0-2.49023-1.70898-4.19922-4.15039-4.19922-2.39258 0-4.05273 1.70898-4.05273 4.19922v14.3555h-14.3555c-2.49023 0-4.15039 1.70898-4.15039 4.15039Z"/>
  </g>
  <g transform="matrix(0.2 0 0 0.2 304.924 1933)">
   <path d="m74.8535 28.3203c35.1074 0 63.623-28.4668 63.623-63.5742s-28.5156-63.623-63.623-63.623-63.5742 28.5156-63.5742 63.623 28.4668 63.5742 63.5742 63.5742Zm0-9.08203c-30.127 0-54.4922-24.3652-54.4922-54.4922s24.3652-54.4922 54.4922-54.4922 54.4922 24.3652 54.4922 54.4922-24.3652 54.4922-54.4922 54.4922Zm-28.8574-54.4922c0 2.58789 1.85547 4.39453 4.58984 4.39453h19.7266v19.7754c0 2.68555 1.85547 4.58984 4.44336 4.58984 2.68555 0 4.54102-1.85547 4.54102-4.58984v-19.7754h19.7754c2.68555 0 4.58984-1.80664 4.58984-4.39453 0-2.73438-1.85547-4.58984-4.58984-4.58984h-19.7754v-19.7266c0-2.73438-1.85547-4.63867-4.54102-4.63867-2.58789 0-4.44336 1.9043-4.44336 4.63867v19.7266h-19.7266c-2.73438 0-4.58984 1.85547-4.58984 4.58984Z"/>
  </g>
  <text style="stroke:none;fill:black;font-family:sans-serif;font-size:13;font-weight:bold;" transform="matrix(1 0 0 1 263 1953)">Design Variations</text>
  <text style="stroke:none;fill:black;font-family:sans-serif;font-size:13;" transform="matrix(1 0 0 1 263 1971)">Symbols are supported in up to nine weights and three scales.</text>
  <text style="stroke:none;fill:black;font-family:sans-serif;font-size:13;" transform="matrix(1 0 0 1 263 1989)">For optimal layout with text and other symbols, vertically align</text>
  <text style="stroke:none;fill:black;font-family:sans-serif;font-size:13;" transform="matrix(1 0 0 1 263 2007)">symbols with the adjacent text.</text>
  <line style="fill:none;stroke:#00AEEF;stroke-width:0.5;opacity:1.0;" x1="776" x2="776" y1="1919" y2="1933"/>
  <g transform="matrix(0.2 0 0 0.2 776 1933)">
   <path d="m16.5527 0.78125c2.58789 0 3.85742-0.976562 4.78516-3.71094l6.29883-17.2363h28.8086l6.29883 17.2363c0.927734 2.73438 2.19727 3.71094 4.73633 3.71094 2.58789 0 4.24805-1.5625 4.24805-4.00391 0-0.830078-0.146484-1.61133-0.537109-2.63672l-22.9004-60.9863c-1.12305-2.97852-3.125-4.49219-6.25-4.49219-3.02734 0-5.07812 1.46484-6.15234 4.44336l-22.9004 61.084c-0.390625 1.02539-0.537109 1.80664-0.537109 2.63672 0 2.44141 1.5625 3.95508 4.10156 3.95508Zm13.4766-28.3691 11.8652-32.8613h0.244141l11.8652 32.8613Z"/>
  </g>
  <line style="fill:none;stroke:#00AEEF;stroke-width:0.5;opacity:1.0;" x1="792.836" x2="792.836" y1="1919" y2="1933"/>
  <text style="stroke:none;fill:black;font-family:sans-serif;font-size:13;font-weight:bold;" transform="matrix(1 0 0 1 776 1953)">Margins</text>
  <text style="stroke:none;fill:black;font-family:sans-serif;font-size:13;" transform="matrix(1 0 0 1 776 1971)">Leading and trailing margins on the left and right side of each symbol</text>
  <text style="stroke:none;fill:black;font-family:sans-serif;font-size:13;" transform="matrix(1 0 0 1 776 1989)">can be adjusted by modifying the x-location of the margin guidelines.</text>
  <text style="stroke:none;fill:black;font-family:sans-serif;font-size:13;" transform="matrix(1 0 0 1 776 2007)">Modifications are automatically applied proportionally to all</text>
  <text style="stroke:none;fill:black;font-family:sans-serif;font-size:13;" transform="matrix(1 0 0 1 776 2025)">scales and weights.</text>
  <g transform="matrix(0.2 0 0 0.2 1289 1933)">
   <path d="m14.209 9.32617 8.49609 8.54492c4.29688 4.3457 9.22852 4.05273 13.8672-1.07422l53.4668-58.9355-4.83398-4.88281-53.0762 58.3984c-1.75781 2.00195-3.41797 2.49023-5.76172 0.146484l-5.85938-5.81055c-2.34375-2.29492-1.80664-4.00391 0.195312-5.81055l57.373-54.0039-4.88281-4.83398-57.959 54.4434c-4.93164 4.58984-5.32227 9.47266-1.02539 13.8184Zm32.0801-90.9668c-2.09961 2.05078-2.24609 4.93164-1.07422 6.88477 1.17188 1.80664 3.4668 2.97852 6.68945 2.14844 7.32422-1.70898 14.9414-2.00195 22.0703 2.68555l-2.92969 7.27539c-1.70898 4.15039-0.830078 7.08008 1.85547 9.81445l11.4746 11.5723c2.44141 2.44141 4.49219 2.53906 7.32422 2.05078l5.32227-0.976562 3.32031 3.36914-0.195312 2.7832c-0.195312 2.49023 0.439453 4.39453 2.88086 6.78711l3.80859 3.71094c2.39258 2.39258 5.46875 2.53906 7.8125 0.195312l14.5508-14.5996c2.34375-2.34375 2.24609-5.32227-0.146484-7.71484l-3.85742-3.80859c-2.39258-2.39258-4.24805-3.17383-6.64062-2.97852l-2.88086 0.244141-3.22266-3.17383 1.2207-5.61523c0.634766-2.83203-0.146484-5.0293-3.07617-7.95898l-10.9863-10.9375c-16.6992-16.6016-38.8672-16.2109-53.3203-1.75781Zm7.4707 1.85547c12.1582-8.88672 28.6133-7.37305 39.7461 3.75977l12.1582 12.0605c1.17188 1.17188 1.36719 2.09961 1.02539 3.80859l-1.61133 7.42188 7.51953 7.42188 4.93164-0.292969c1.26953-0.0488281 1.66016 0.0488281 2.63672 1.02539l2.88086 2.88086-12.207 12.207-2.88086-2.88086c-0.976562-0.976562-1.12305-1.36719-1.07422-2.68555l0.341797-4.88281-7.4707-7.42188-7.61719 1.26953c-1.61133 0.341797-2.34375 0.195312-3.56445-0.976562l-10.0098-10.0098c-1.26953-1.17188-1.41602-2.00195-0.634766-3.85742l4.39453-10.4492c-7.8125-7.27539-17.9688-10.4004-28.125-7.42188-0.78125 0.195312-1.07422-0.439453-0.439453-0.976562Z"/>
  </g>
  <text style="stroke:none;fill:black;font-family:sans-serif;font-size:13;font-weight:bold;" transform="matrix(1 0 0 1 1289 1953)">Exporting</text>
  <text style="stroke:none;fill:black;font-family:sans-serif;font-size:13;" transform="matrix(1 0 0 1 1289 1971)">Symbols should be outlined when exporting to ensure the</text>
  <text style="stroke:none;fill:black;font-family:sans-serif;font-size:13;" transform="matrix(1 0 0 1 1289 1989)">design is preserved when submitting to Xcode.</text>
  <text id="template-version" style="stroke:none;fill:black;font-family:sans-serif;font-size:13;text-anchor:end;" transform="matrix(1 0 0 1 3036 1933)">Template v.6.0</text>
  <text style="stroke:none;fill:black;font-family:sans-serif;font-size:13;text-anchor:end;" transform="matrix(1 0 0 1 3036 1951)">Requires Xcode 16 or greater</text>
  <text id="descriptive-name" style="stroke:none;fill:black;font-family:sans-serif;font-size:13;text-anchor:end;" transform="matrix(1 0 0 1 3036 1969)">Generated from figure.slowrun</text>
  <text style="stroke:none;fill:black;font-family:sans-serif;font-size:13;text-anchor:end;" transform="matrix(1 0 0 1 3036 1987)">Typeset at 100.0 points</text>
  <text style="stroke:none;fill:black;font-family:sans-serif;font-size:13;" transform="matrix(1 0 0 1 263 726)">Small</text>
  <text style="stroke:none;fill:black;font-family:sans-serif;font-size:13;" transform="matrix(1 0 0 1 263 1156)">Medium</text>
  <text style="stroke:none;fill:black;font-family:sans-serif;font-size:13;" transform="matrix(1 0 0 1 263 1586)">Large</text>
 </g>
 <g id="Guides">
  <g id="H-reference" style="fill:#27AAE1;stroke:none;" transform="matrix(1 0 0 1 339 696)">
   <path d="M0.993654 0L3.63775 0L29.3281-67.1323L30.0303-67.1323L30.0303-70.459L28.1226-70.459ZM11.6885-24.4799L46.9815-24.4799L46.2315-26.7285L12.4385-26.7285ZM55.1196 0L57.7637 0L30.6382-70.459L29.4326-70.459L29.4326-67.1323Z"/>
  </g>
  <line id="Baseline-S" style="fill:none;stroke:#27AAE1;opacity:1;stroke-width:0.5;" x1="263" x2="3036" y1="696" y2="696"/>
  <line id="Capline-S" style="fill:none;stroke:#27AAE1;opacity:1;stroke-width:0.5;" x1="263" x2="3036" y1="625.541" y2="625.541"/>
  <g id="H-reference" style="fill:#27AAE1;stroke:none;" transform="matrix(1 0 0 1 339 1126)">
   <path d="M0.993654 0L3.63775 0L29.3281-67.1323L30.0303-67.1323L30.0303-70.459L28.1226-70.459ZM11.6885-24.4799L46.9815-24.4799L46.2315-26.7285L12.4385-26.7285ZM55.1196 0L57.7637 0L30.6382-70.459L29.4326-70.459L29.4326-67.1323Z"/>
  </g>
  <line id="Baseline-M" style="fill:none;stroke:#27AAE1;opacity:1;stroke-width:0.5;" x1="263" x2="3036" y1="1126" y2="1126"/>
  <line id="Capline-M" style="fill:none;stroke:#27AAE1;opacity:1;stroke-width:0.5;" x1="263" x2="3036" y1="1055.54" y2="1055.54"/>
  <g id="H-reference" style="fill:#27AAE1;stroke:none;" transform="matrix(1 0 0 1 339 1556)">
   <path d="M0.993654 0L3.63775 0L29.3281-67.1323L30.0303-67.1323L30.0303-70.459L28.1226-70.459ZM11.6885-24.4799L46.9815-24.4799L46.2315-26.7285L12.4385-26.7285ZM55.1196 0L57.7637 0L30.6382-70.459L29.4326-70.459L29.4326-67.1323Z"/>
  </g>
  <line id="Baseline-L" style="fill:none;stroke:#27AAE1;opacity:1;stroke-width:0.5;" x1="263" x2="3036" y1="1556" y2="1556"/>
  <line id="Capline-L" style="fill:none;stroke:#27AAE1;opacity:1;stroke-width:0.5;" x1="263" x2="3036" y1="1485.54" y2="1485.54"/>
  <line id="right-margin-Black-S" style="fill:none;stroke:#00AEEF;stroke-width:0.5;opacity:1.0;" x1="2964.5" x2="2964.5" y1="600.785" y2="720.121"/>
  <line id="left-margin-Black-S" style="fill:none;stroke:#00AEEF;stroke-width:0.5;opacity:1.0;" x1="2902.3" x2="2902.3" y1="600.785" y2="720.121"/>
  <line id="right-margin-Regular-S" style="fill:none;stroke:#00AEEF;stroke-width:0.5;opacity:1.0;" x1="1478.19" x2="1478.19" y1="600.785" y2="720.121"/>
  <line id="left-margin-Regular-S" style="fill:none;stroke:#00AEEF;stroke-width:0.5;opacity:1.0;" x1="1421.5" x2="1421.5" y1="600.785" y2="720.121"/>
  <line id="right-margin-Ultralight-S" style="fill:none;stroke:#00AEEF;stroke-width:0.5;opacity:1.0;" x1="585.013" x2="585.013" y1="600.785" y2="720.121"/>
  <line id="left-margin-Ultralight-S" style="fill:none;stroke:#00AEEF;stroke-width:0.5;opacity:1.0;" x1="534.409" x2="534.409" y1="600.785" y2="720.121"/>
 </g>
 <g id="Symbols">
  <g id="Black-S" transform="matrix(1 0 0 1 2902.3 696)">
   <path class="SFSymbolsPreviewWireframe" d="M14.3369-19.2377C12.1685-19.2377 10.3894-21.0168 10.3894-23.2408L10.3894-42.2555C10.3894-52.0966 17.5615-58.5459 28.2366-58.5459L34.8528-58.5459C45.5278-58.5459 52.7-52.0966 52.7-42.2555L52.7-23.2408C52.7-21.0168 50.9209-19.2377 48.6968-19.2377C46.5286-19.2377 44.7493-21.0168 44.7493-23.2408L44.7493-40.254C44.7493-41.088 44.0823-41.7551 43.2483-41.7551C42.4697-41.7551 41.8027-41.088 41.8027-40.254L41.8027 11.1747C41.8027 13.6211 39.8567 15.5115 37.4104 15.5115C35.0195 15.5115 33.0737 13.6211 33.0737 11.1747L33.0737-20.0717C33.0737-20.9056 32.3508-21.6284 31.5168-21.6284C30.7385-21.6284 30.0156-20.9056 30.0156-20.0717L30.0156 11.1747C30.0156 13.6211 28.0698 15.5115 25.6235 15.5115C23.2327 15.5115 21.2866 13.6211 21.2866 11.1747L21.2866-40.254C21.2866-41.088 20.6196-41.7551 19.7856-41.7551C19.0071-41.7551 18.3401-41.088 18.3401-40.254L18.3401-23.2408C18.3401-21.0168 16.5608-19.2377 14.3369-19.2377ZM41.1909-73.224C41.1909-67.8865 36.9099-63.5498 31.5168-63.5498C26.1794-63.5498 21.8428-67.8865 21.8428-73.224C21.8428-78.6171 26.1794-82.8982 31.5168-82.8982C36.9099-82.8982 41.1909-78.6171 41.1909-73.224Z"/>
   <path class="monochrome-0 multicolor-0:tintColor hierarchical-0:primary SFSymbolsPreviewWireframe" d="M10.3894-23.2408C10.3894-21.0168 12.1685-19.2377 14.3369-19.2377C16.5608-19.2377 18.3401-21.0168 18.3401-23.2408L18.3401-40.254C18.3401-41.088 19.0071-41.7551 19.7856-41.7551C20.6196-41.7551 21.2866-41.088 21.2866-40.254L21.2866 11.1747C21.2866 13.6211 23.2327 15.5115 25.6235 15.5115C28.0698 15.5115 30.0156 13.6211 30.0156 11.1747L30.0156-20.0717C30.0156-20.9056 30.7385-21.6284 31.5168-21.6284C32.3508-21.6284 33.0737-20.9056 33.0737-20.0717L33.0737 11.1747C33.0737 13.6211 35.0195 15.5115 37.4104 15.5115C39.8567 15.5115 41.8027 13.6211 41.8027 11.1747L41.8027-40.254C41.8027-41.088 42.4697-41.7551 43.2483-41.7551C44.0823-41.7551 44.7493-41.088 44.7493-40.254L44.7493-23.2408C44.7493-21.0168 46.5286-19.2377 48.6968-19.2377C50.9209-19.2377 52.7-21.0168 52.7-23.2408L52.7-42.2555C52.7-52.0966 45.5278-58.5459 34.8528-58.5459L28.2366-58.5459C17.5615-58.5459 10.3894-52.0966 10.3894-42.2555ZM31.5168-63.5498C36.9099-63.5498 41.1909-67.8865 41.1909-73.224C41.1909-78.6171 36.9099-82.8982 31.5168-82.8982C26.1794-82.8982 21.8428-78.6171 21.8428-73.224C21.8428-67.8865 26.1794-63.5498 31.5168-63.5498Z"/>
   <path class="monochrome-1 multicolor-1:tintColor hierarchical-1:primary SFSymbolsPreviewWireframe" d="M31.5168-79.8982C27.8145-79.8982 24.8428-76.9384 24.8428-73.224C24.8428-69.5433 27.8362-66.5498 31.5168-66.5498C35.2312-66.5498 38.1909-69.5214 38.1909-73.224C38.1909-76.9603 35.2529-79.8982 31.5168-79.8982Z"/>
   <path class="monochrome-2 multicolor-2:tintColor hierarchical-2:primary SFSymbolsPreviewWireframe" d="M28.2366-55.5459C19.1196-55.5459 13.3894-50.3377 13.3894-42.2555L13.3894-23.2408C13.3894-22.6758 13.8232-22.2377 14.3369-22.2377C14.9041-22.2377 15.3401-22.6738 15.3401-23.2408L15.3401-40.254C15.3401-42.7189 17.324-44.7551 19.7856-44.7551C22.2766-44.7551 24.2866-42.7448 24.2866-40.254L24.2866 11.1747C24.2866 11.939 24.8643 12.5115 25.6235 12.5115C26.4355 12.5115 27.0156 11.9416 27.0156 11.1747L27.0156-20.0717C27.0156-22.5371 29.0562-24.6284 31.5168-24.6284C34.0076-24.6284 36.0737-22.5626 36.0737-20.0717L36.0737 11.1747C36.0737 11.9391 36.6511 12.5115 37.4104 12.5115C38.2227 12.5115 38.8027 11.9415 38.8027 11.1747L38.8027-40.254C38.8027-42.7189 40.7866-44.7551 43.2483-44.7551C45.7393-44.7551 47.7493-42.7448 47.7493-40.254L47.7493-23.2408C47.7493-22.676 48.1833-22.2377 48.6968-22.2377C49.2639-22.2377 49.7-22.6736 49.7-23.2408L49.7-42.2555C49.7-50.3377 43.9697-55.5459 34.8528-55.5459L28.2366-55.5459Z"/>
  </g>
  <g id="Regular-S" transform="matrix(1 0 0 1 1421.5 696)">
   <path class="SFSymbolsPreviewWireframe" d="M13.2324-22.998C11.3281-22.998 9.76562-24.5605 9.76562-26.5137L9.76562-43.2129C9.76562-51.8555 16.0645-57.5195 25.4395-57.5195L31.25-57.5195C40.625-57.5195 46.9238-51.8555 46.9238-43.2129L46.9238-26.5137C46.9238-24.5605 45.3613-22.998 43.4082-22.998C41.5039-22.998 39.9414-24.5605 39.9414-26.5137L39.9414-41.4551C39.9414-42.1875 39.3555-42.7734 38.623-42.7734C37.9395-42.7734 37.3535-42.1875 37.3535-41.4551L37.3535 3.71094C37.3535 5.85938 35.6445 7.51953 33.4961 7.51953C31.3965 7.51953 29.6875 5.85938 29.6875 3.71094L29.6875-23.7305C29.6875-24.4629 29.0527-25.0977 28.3203-25.0977C27.6367-25.0977 27.002-24.4629 27.002-23.7305L27.002 3.71094C27.002 5.85938 25.293 7.51953 23.1445 7.51953C21.0449 7.51953 19.3359 5.85938 19.3359 3.71094L19.3359-41.4551C19.3359-42.1875 18.75-42.7734 18.0176-42.7734C17.334-42.7734 16.748-42.1875 16.748-41.4551L16.748-26.5137C16.748-24.5605 15.1855-22.998 13.2324-22.998ZM36.8164-70.4102C36.8164-65.7227 33.0566-61.9141 28.3203-61.9141C23.6328-61.9141 19.8242-65.7227 19.8242-70.4102C19.8242-75.1465 23.6328-78.9062 28.3203-78.9062C33.0566-78.9062 36.8164-75.1465 36.8164-70.4102Z"/>
   <path class="monochrome-0 multicolor-0:tintColor hierarchical-0:primary SFSymbolsPreviewWireframe" d="M9.76562-26.5137C9.76562-24.5605 11.3281-22.998 13.2324-22.998C15.1855-22.998 16.748-24.5605 16.748-26.5137L16.748-41.4551C16.748-42.1875 17.334-42.7734 18.0176-42.7734C18.75-42.7734 19.3359-42.1875 19.3359-41.4551L19.3359 3.71094C19.3359 5.85938 21.0449 7.51953 23.1445 7.51953C25.293 7.51953 27.002 5.85938 27.002 3.71094L27.002-23.7305C27.002-24.4629 27.6367-25.0977 28.3203-25.0977C29.0527-25.0977 29.6875-24.4629 29.6875-23.7305L29.6875 3.71094C29.6875 5.85938 31.3965 7.51953 33.4961 7.51953C35.6445 7.51953 37.3535 5.85938 37.3535 3.71094L37.3535-41.4551C37.3535-42.1875 37.9395-42.7734 38.623-42.7734C39.3555-42.7734 39.9414-42.1875 39.9414-41.4551L39.9414-26.5137C39.9414-24.5605 41.5039-22.998 43.4082-22.998C45.3613-22.998 46.9238-24.5605 46.9238-26.5137L46.9238-43.2129C46.9238-51.8555 40.625-57.5195 31.25-57.5195L25.4395-57.5195C16.0645-57.5195 9.76562-51.8555 9.76562-43.2129ZM28.3203-61.9141C33.0566-61.9141 36.8164-65.7227 36.8164-70.4102C36.8164-75.1465 33.0566-78.9062 28.3203-78.9062C23.6328-78.9062 19.8242-75.1465 19.8242-70.4102C19.8242-65.7227 23.6328-61.9141 28.3203-61.9141Z"/>
   <path class="monochrome-1 multicolor-1:tintColor hierarchical-1:primary SFSymbolsPreviewWireframe" d="M28.3203-75.9062C25.27-75.9062 22.8242-73.4701 22.8242-70.4102C22.8242-67.3795 25.2897-64.9141 28.3203-64.9141C31.3802-64.9141 33.8164-67.3599 33.8164-70.4102C33.8164-73.4896 31.3998-75.9062 28.3203-75.9062Z"/>
   <path class="monochrome-2 multicolor-2:tintColor hierarchical-2:primary SFSymbolsPreviewWireframe" d="M25.4395-54.5195C17.6273-54.5195 12.7656-50.1008 12.7656-43.2129L12.7656-26.5137C12.7656-26.2185 12.984-25.998 13.2324-25.998C13.5287-25.998 13.748-26.2174 13.748-26.5137L13.748-41.4551C13.748-43.8195 15.652-45.7734 18.0176-45.7734C20.4069-45.7734 22.3359-43.8444 22.3359-41.4551L22.3359 3.71094C22.3359 4.17969 22.6788 4.51953 23.1445 4.51953C23.6575 4.51953 24.002 4.18109 24.002 3.71094L24.002-23.7305C24.002-26.0955 25.9553-28.0977 28.3203-28.0977C30.7096-28.0977 32.6875-26.1198 32.6875-23.7305L32.6875 3.71094C32.6875 4.17969 33.0304 4.51953 33.4961 4.51953C34.009 4.51953 34.3535 4.18109 34.3535 3.71094L34.3535-41.4551C34.3535-43.8195 36.2574-45.7734 38.623-45.7734C41.0123-45.7734 42.9414-43.8444 42.9414-41.4551L42.9414-26.5137C42.9414-26.2185 43.1598-25.998 43.4082-25.998C43.7045-25.998 43.9238-26.2174 43.9238-26.5137L43.9238-43.2129C43.9238-50.1008 39.0621-54.5195 31.25-54.5195L25.4395-54.5195Z"/>
  </g>
  <g id="Ultralight-S" transform="matrix(1 0 0 1 534.409 696)">
   <path class="SFSymbolsPreviewWireframe" d="M11.4816-23.9709C9.72321-23.9709 8.28046-25.4137 8.28046-27.2172L8.28046-42.6366C8.28046-50.6168 14.0966-55.8468 22.7531-55.8468L28.1183-55.8468C36.7749-55.8468 42.591-50.6168 42.591-42.6366L42.591-27.2172C42.591-25.4137 41.1483-23.9709 39.3448-23.9709C37.5864-23.9709 36.1437-25.4137 36.1437-27.2172L36.1437-41.0136C36.1437-41.6898 35.6027-42.2308 34.9263-42.2308C34.2952-42.2308 33.7541-41.6898 33.7541-41.0136L33.7541 0.691162C33.7541 2.67493 32.1761 4.20789 30.1923 4.20789C28.2536 4.20789 26.6756 2.67493 26.6756 0.691162L26.6756-24.6472C26.6756-25.3236 26.0895-25.9097 25.4132-25.9097C24.782-25.9097 24.1959-25.3236 24.1959-24.6472L24.1959 0.691162C24.1959 2.67493 22.6179 4.20789 20.634 4.20789C18.6954 4.20789 17.1173 2.67493 17.1173 0.691162L17.1173-41.0136C17.1173-41.6898 16.5763-42.2308 15.9-42.2308C15.2688-42.2308 14.7278-41.6898 14.7278-41.0136L14.7278-27.2172C14.7278-25.4137 13.285-23.9709 11.4816-23.9709ZM33.2582-67.7496C33.2582-63.4214 29.7866-59.9047 25.4132-59.9047C21.0849-59.9047 17.5682-63.4214 17.5682-67.7496C17.5682-72.1229 21.0849-75.5946 25.4132-75.5946C29.7866-75.5946 33.2582-72.1229 33.2582-67.7496Z"/>
   <path class="monochrome-0 multicolor-0:tintColor hierarchical-0:primary SFSymbolsPreviewWireframe" d="M8.28046-27.2172C8.28046-25.4137 9.72321-23.9709 11.4816-23.9709C13.285-23.9709 14.7278-25.4137 14.7278-27.2172L14.7278-41.0136C14.7278-41.6898 15.2688-42.2308 15.9-42.2308C16.5763-42.2308 17.1173-41.6898 17.1173-41.0136L17.1173 0.691162C17.1173 2.67493 18.6954 4.20789 20.634 4.20789C22.6179 4.20789 24.1959 2.67493 24.1959 0.691162L24.1959-24.6472C24.1959-25.3236 24.782-25.9097 25.4132-25.9097C26.0895-25.9097 26.6756-25.3236 26.6756-24.6472L26.6756 0.691162C26.6756 2.67493 28.2536 4.20789 30.1923 4.20789C32.1761 4.20789 33.7541 2.67493 33.7541 0.691162L33.7541-41.0136C33.7541-41.6898 34.2952-42.2308 34.9263-42.2308C35.6027-42.2308 36.1437-41.6898 36.1437-41.0136L36.1437-27.2172C36.1437-25.4137 37.5864-23.9709 39.3448-23.9709C41.1483-23.9709 42.591-25.4137 42.591-27.2172L42.591-42.6366C42.591-50.6168 36.7749-55.8468 28.1183-55.8468L22.7531-55.8468C14.0966-55.8468 8.28046-50.6168 8.28046-42.6366ZM25.4132-59.9047C29.7866-59.9047 33.2582-63.4214 33.2582-67.7496C33.2582-72.1229 29.7866-75.5946 25.4132-75.5946C21.0849-75.5946 17.5682-72.1229 17.5682-67.7496C17.5682-63.4214 21.0849-59.9047 25.4132-59.9047Z"/>
   <path class="monochrome-1 multicolor-1:tintColor hierarchical-1:primary SFSymbolsPreviewWireframe" d="M25.4132-72.5946C22.7235-72.5946 20.5682-70.4479 20.5682-67.7496C20.5682-65.0782 22.7418-62.9047 25.4132-62.9047C28.1114-62.9047 30.2582-65.0599 30.2582-67.7496C30.2582-70.4661 28.1297-72.5946 25.4132-72.5946Z"/>
   <path class="monochrome-2 multicolor-2:tintColor hierarchical-2:primary SFSymbolsPreviewWireframe" d="M22.7531-52.8468C15.6619-52.8468 11.2805-48.8645 11.2805-42.6366L11.2805-27.2172C11.2805-27.0711 11.3796-26.9709 11.4816-26.9709C11.6282-26.9709 11.7278-27.0706 11.7278-27.2172L11.7278-41.0136C11.7278-43.3224 13.5873-45.2308 15.9-45.2308C18.2332-45.2308 20.1173-43.3467 20.1173-41.0136L20.1173 0.691162C20.1173 0.996521 20.3306 1.20789 20.634 1.20789C20.9816 1.20789 21.1959 0.997375 21.1959 0.691162L21.1959-24.6472C21.1959-26.9568 23.1012-28.9097 25.4132-28.9097C27.7463-28.9097 29.6756-26.9804 29.6756-24.6472L29.6756 0.691162C29.6756 0.996521 29.8889 1.20789 30.1923 1.20789C30.5399 1.20789 30.7541 0.997375 30.7541 0.691162L30.7541-41.0136C30.7541-43.3223 32.6136-45.2308 34.9263-45.2308C37.2595-45.2308 39.1437-43.3467 39.1437-41.0136L39.1437-27.2172C39.1437-27.0711 39.2429-26.9709 39.3448-26.9709C39.4914-26.9709 39.591-27.0706 39.591-27.2172L39.591-42.6366C39.591-48.8645 35.2095-52.8468 28.1183-52.8468L22.7531-52.8468Z"/>
  </g>
 </g>
</svg>
