<?xml version="1.0" encoding="UTF-8"?>
<!--Generator: Apple Native CoreSVG 341-->
<!DOCTYPE svg
PUBLIC "-//W3C//DTD SVG 1.1//EN"
       "http://www.w3.org/Graphics/SVG/1.1/DTD/svg11.dtd">
<svg version="1.1" xmlns="http://www.w3.org/2000/svg" xmlns:xlink="http://www.w3.org/1999/xlink" viewBox="0 0 28.3398 18.2715">
 <g>
  <rect height="18.2715" opacity="0" width="28.3398" x="0" y="0"/>
  <path d="M8.54492 11.2988L8.54492 16.6895C8.54492 17.5684 7.85156 18.2617 6.98242 18.2617L1.55273 18.2617C0.683594 18.2617 0 17.5684 0 16.6895L0 11.2988C0 10.4199 0.683594 9.7168 1.55273 9.7168L6.98242 9.7168C7.85156 9.7168 8.54492 10.4199 8.54492 11.2988ZM18.2617 11.2988L18.2617 16.6895C18.2617 17.5684 17.5684 18.2617 16.6895 18.2617L11.2695 18.2617C10.4004 18.2617 9.7168 17.5684 9.7168 16.6895L9.7168 11.2988C9.7168 10.4199 10.4004 9.7168 11.2695 9.7168L16.6895 9.7168C17.5684 9.7168 18.2617 10.4199 18.2617 11.2988ZM27.9785 11.2988L27.9785 16.6895C27.9785 17.5684 27.2949 18.2617 26.416 18.2617L20.9961 18.2617C20.1172 18.2617 19.4336 17.5684 19.4336 16.6895L19.4336 11.2988C19.4336 10.4199 20.1172 9.7168 20.9961 9.7168L26.416 9.7168C27.2949 9.7168 27.9785 10.4199 27.9785 11.2988ZM5.13672 11.8945L2.26562 13.5645C1.94336 13.75 1.95312 14.248 2.27539 14.4238L5.13672 16.084C5.47852 16.2891 5.9082 16.0547 5.9082 15.6934L5.9082 12.2754C5.9082 11.9141 5.47852 11.6895 5.13672 11.8945ZM22.0703 12.2754L22.0703 15.6934C22.0703 16.0547 22.5 16.2891 22.8418 16.084L25.7031 14.4238C26.0156 14.248 26.0254 13.75 25.7129 13.5645L22.8418 11.8945C22.5 11.6895 22.0703 11.9141 22.0703 12.2754ZM12.2754 12.0605C11.9141 12.0605 11.6895 12.4902 11.8945 12.832L13.5449 15.6934C13.7305 16.0059 14.2285 16.0156 14.4043 15.7031L16.084 12.832C16.2891 12.4902 16.0547 12.0605 15.7031 12.0605ZM18.2617 1.58203L18.2617 6.97266C18.2617 7.85156 17.5684 8.54492 16.6895 8.54492L11.2695 8.54492C10.4004 8.54492 9.7168 7.85156 9.7168 6.97266L9.7168 1.58203C9.7168 0.703125 10.4004 0 11.2695 0L16.6895 0C17.5684 0 18.2617 0.703125 18.2617 1.58203ZM13.5449 2.56836L11.8945 5.42969C11.6895 5.77148 11.9141 6.20117 12.2754 6.20117L15.7031 6.20117C16.0547 6.20117 16.2891 5.77148 16.084 5.42969L14.4043 2.55859C14.2285 2.24609 13.7305 2.25586 13.5449 2.56836Z" fill="white" fill-opacity="0.85"/>
 </g>
</svg>
