<?xml version="1.0" encoding="UTF-8"?>
<!--Generator: Apple Native CoreSVG 341-->
<!DOCTYPE svg
PUBLIC "-//W3C//DTD SVG 1.1//EN"
       "http://www.w3.org/Graphics/SVG/1.1/DTD/svg11.dtd">
<svg version="1.1" xmlns="http://www.w3.org/2000/svg" xmlns:xlink="http://www.w3.org/1999/xlink" viewBox="0 0 3300 2200">
 <!--glyph: "", point size: 100.0, font version: "20.0d10e1", template writer version: "138.0.0"-->
 <style>.monochrome-0 {-sfsymbols-motion-group:7;-sfsymbols-layer-tags:5a44afb9816dc0ee}
.monochrome-1 {-sfsymbols-motion-group:6;-sfsymbols-layer-tags:5a44afb9816dc0ee}
.monochrome-2 {-sfsymbols-motion-group:5;-sfsymbols-layer-tags:5a44afb9816dc0ee}
.monochrome-3 {-sfsymbols-motion-group:4;-sfsymbols-layer-tags:5a44afb9816dc0ee}
.monochrome-4 {-sfsymbols-motion-group:3;-sfsymbols-layer-tags:5a44afb9816dc0ee}
.monochrome-5 {-sfsymbols-motion-group:2;-sfsymbols-layer-tags:5a44afb9816dc0ee}
.monochrome-6 {-sfsymbols-motion-group:1;-sfsymbols-layer-tags:5a44afb9816dc0ee}
.monochrome-7 {-sfsymbols-motion-group:0;-sfsymbols-layer-tags:5a44afb9816dc0ee}

.multicolor-0:tintColor {-sfsymbols-motion-group:7;-sfsymbols-layer-tags:5a44afb9816dc0ee}
.multicolor-1:custom {fill:#E8B106;-sfsymbols-motion-group:6;-sfsymbols-layer-tags:5a44afb9816dc0ee}
.multicolor-2:custom {fill:#028267;-sfsymbols-motion-group:5;-sfsymbols-layer-tags:5a44afb9816dc0ee}
.multicolor-3:tintColor {opacity:0.0;-sfsymbols-clear-behind:true;-sfsymbols-motion-group:4;-sfsymbols-layer-tags:5a44afb9816dc0ee}
.multicolor-4:tintColor {opacity:0.0;-sfsymbols-clear-behind:true;-sfsymbols-motion-group:3;-sfsymbols-layer-tags:5a44afb9816dc0ee}
.multicolor-5:tintColor {opacity:0.0;-sfsymbols-clear-behind:true;-sfsymbols-motion-group:2;-sfsymbols-layer-tags:5a44afb9816dc0ee}
.multicolor-6:tintColor {opacity:0.0;-sfsymbols-clear-behind:true;-sfsymbols-motion-group:1;-sfsymbols-layer-tags:5a44afb9816dc0ee}
.multicolor-7:tintColor {opacity:0.0;-sfsymbols-clear-behind:true;-sfsymbols-motion-group:0;-sfsymbols-layer-tags:5a44afb9816dc0ee}

.hierarchical-0:primary {-sfsymbols-motion-group:7;-sfsymbols-layer-tags:5a44afb9816dc0ee}
.hierarchical-1:primary {-sfsymbols-motion-group:6;-sfsymbols-layer-tags:5a44afb9816dc0ee}
.hierarchical-2:primary {-sfsymbols-motion-group:5;-sfsymbols-layer-tags:5a44afb9816dc0ee}
.hierarchical-3:primary {-sfsymbols-motion-group:4;-sfsymbols-layer-tags:5a44afb9816dc0ee}
.hierarchical-4:primary {-sfsymbols-motion-group:3;-sfsymbols-layer-tags:5a44afb9816dc0ee}
.hierarchical-5:primary {-sfsymbols-motion-group:2;-sfsymbols-layer-tags:5a44afb9816dc0ee}
.hierarchical-6:primary {-sfsymbols-motion-group:1;-sfsymbols-layer-tags:5a44afb9816dc0ee}
.hierarchical-7:primary {-sfsymbols-motion-group:0;-sfsymbols-layer-tags:5a44afb9816dc0ee}

.SFSymbolsPreviewWireframe {fill:none;opacity:1.0;stroke:black;stroke-width:0.5}
</style>
 <g id="Notes">
  <rect height="2200" id="artboard" style="fill:white;opacity:1" width="3300" x="0" y="0"/>
  <line style="fill:none;stroke:black;opacity:1;stroke-width:0.5;" x1="263" x2="3036" y1="292" y2="292"/>
  <text style="stroke:none;fill:black;font-family:sans-serif;font-size:13;font-weight:bold;" transform="matrix(1 0 0 1 263 322)">Weight/Scale Variations</text>
  <text style="stroke:none;fill:black;font-family:sans-serif;font-size:13;text-anchor:middle;" transform="matrix(1 0 0 1 559.711 322)">Ultralight</text>
  <text style="stroke:none;fill:black;font-family:sans-serif;font-size:13;text-anchor:middle;" transform="matrix(1 0 0 1 856.422 322)">Thin</text>
  <text style="stroke:none;fill:black;font-family:sans-serif;font-size:13;text-anchor:middle;" transform="matrix(1 0 0 1 1153.13 322)">Light</text>
  <text style="stroke:none;fill:black;font-family:sans-serif;font-size:13;text-anchor:middle;" transform="matrix(1 0 0 1 1449.84 322)">Regular</text>
  <text style="stroke:none;fill:black;font-family:sans-serif;font-size:13;text-anchor:middle;" transform="matrix(1 0 0 1 1746.56 322)">Medium</text>
  <text style="stroke:none;fill:black;font-family:sans-serif;font-size:13;text-anchor:middle;" transform="matrix(1 0 0 1 2043.27 322)">Semibold</text>
  <text style="stroke:none;fill:black;font-family:sans-serif;font-size:13;text-anchor:middle;" transform="matrix(1 0 0 1 2339.98 322)">Bold</text>
  <text style="stroke:none;fill:black;font-family:sans-serif;font-size:13;text-anchor:middle;" transform="matrix(1 0 0 1 2636.69 322)">Heavy</text>
  <text style="stroke:none;fill:black;font-family:sans-serif;font-size:13;text-anchor:middle;" transform="matrix(1 0 0 1 2933.4 322)">Black</text>
  <line style="fill:none;stroke:black;opacity:1;stroke-width:0.5;" x1="263" x2="3036" y1="1903" y2="1903"/>
  <g transform="matrix(0.2 0 0 0.2 263 1933)">
   <path d="m46.2402 4.15039c21.7773 0 39.4531-17.627 39.4531-39.4043s-17.6758-39.4043-39.4531-39.4043c-21.7285 0-39.4043 17.627-39.4043 39.4043s17.6758 39.4043 39.4043 39.4043Zm0-7.42188c-17.6758 0-31.9336-14.3066-31.9336-31.9824s14.2578-31.9824 31.9336-31.9824 31.9824 14.3066 31.9824 31.9824-14.3066 31.9824-31.9824 31.9824Zm-17.9688-31.9824c0 2.14844 1.51367 3.61328 3.75977 3.61328h10.498v10.5957c0 2.19727 1.46484 3.71094 3.61328 3.71094 2.24609 0 3.71094-1.51367 3.71094-3.71094v-10.5957h10.5957c2.19727 0 3.71094-1.46484 3.71094-3.61328 0-2.19727-1.51367-3.71094-3.71094-3.71094h-10.5957v-10.5469c0-2.24609-1.46484-3.75977-3.71094-3.75977-2.14844 0-3.61328 1.51367-3.61328 3.75977v10.5469h-10.498c-2.24609 0-3.75977 1.51367-3.75977 3.71094Z"/>
  </g>
  <g transform="matrix(0.2 0 0 0.2 281.506 1933)">
   <path d="m58.5449 14.5508c27.4902 0 49.8047-22.3145 49.8047-49.8047s-22.3145-49.8047-49.8047-49.8047-49.8047 22.3145-49.8047 49.8047 22.3145 49.8047 49.8047 49.8047Zm0-8.30078c-22.9492 0-41.5039-18.5547-41.5039-41.5039s18.5547-41.5039 41.5039-41.5039 41.5039 18.5547 41.5039 41.5039-18.5547 41.5039-41.5039 41.5039Zm-22.6562-41.5039c0 2.39258 1.66016 4.00391 4.15039 4.00391h14.3555v14.4043c0 2.44141 1.66016 4.15039 4.05273 4.15039 2.44141 0 4.15039-1.66016 4.15039-4.15039v-14.4043h14.4043c2.44141 0 4.15039-1.61133 4.15039-4.00391 0-2.44141-1.70898-4.15039-4.15039-4.15039h-14.4043v-14.3555c0-2.49023-1.70898-4.19922-4.15039-4.19922-2.39258 0-4.05273 1.70898-4.05273 4.19922v14.3555h-14.3555c-2.49023 0-4.15039 1.70898-4.15039 4.15039Z"/>
  </g>
  <g transform="matrix(0.2 0 0 0.2 304.924 1933)">
   <path d="m74.8535 28.3203c35.1074 0 63.623-28.4668 63.623-63.5742s-28.5156-63.623-63.623-63.623-63.5742 28.5156-63.5742 63.623 28.4668 63.5742 63.5742 63.5742Zm0-9.08203c-30.127 0-54.4922-24.3652-54.4922-54.4922s24.3652-54.4922 54.4922-54.4922 54.4922 24.3652 54.4922 54.4922-24.3652 54.4922-54.4922 54.4922Zm-28.8574-54.4922c0 2.58789 1.85547 4.39453 4.58984 4.39453h19.7266v19.7754c0 2.68555 1.85547 4.58984 4.44336 4.58984 2.68555 0 4.54102-1.85547 4.54102-4.58984v-19.7754h19.7754c2.68555 0 4.58984-1.80664 4.58984-4.39453 0-2.73438-1.85547-4.58984-4.58984-4.58984h-19.7754v-19.7266c0-2.73438-1.85547-4.63867-4.54102-4.63867-2.58789 0-4.44336 1.9043-4.44336 4.63867v19.7266h-19.7266c-2.73438 0-4.58984 1.85547-4.58984 4.58984Z"/>
  </g>
  <text style="stroke:none;fill:black;font-family:sans-serif;font-size:13;font-weight:bold;" transform="matrix(1 0 0 1 263 1953)">Design Variations</text>
  <text style="stroke:none;fill:black;font-family:sans-serif;font-size:13;" transform="matrix(1 0 0 1 263 1971)">Symbols are supported in up to nine weights and three scales.</text>
  <text style="stroke:none;fill:black;font-family:sans-serif;font-size:13;" transform="matrix(1 0 0 1 263 1989)">For optimal layout with text and other symbols, vertically align</text>
  <text style="stroke:none;fill:black;font-family:sans-serif;font-size:13;" transform="matrix(1 0 0 1 263 2007)">symbols with the adjacent text.</text>
  <line style="fill:none;stroke:#00AEEF;stroke-width:0.5;opacity:1.0;" x1="776" x2="776" y1="1919" y2="1933"/>
  <g transform="matrix(0.2 0 0 0.2 776 1933)">
   <path d="m16.5527 0.78125c2.58789 0 3.85742-0.976562 4.78516-3.71094l6.29883-17.2363h28.8086l6.29883 17.2363c0.927734 2.73438 2.19727 3.71094 4.73633 3.71094 2.58789 0 4.24805-1.5625 4.24805-4.00391 0-0.830078-0.146484-1.61133-0.537109-2.63672l-22.9004-60.9863c-1.12305-2.97852-3.125-4.49219-6.25-4.49219-3.02734 0-5.07812 1.46484-6.15234 4.44336l-22.9004 61.084c-0.390625 1.02539-0.537109 1.80664-0.537109 2.63672 0 2.44141 1.5625 3.95508 4.10156 3.95508Zm13.4766-28.3691 11.8652-32.8613h0.244141l11.8652 32.8613Z"/>
  </g>
  <line style="fill:none;stroke:#00AEEF;stroke-width:0.5;opacity:1.0;" x1="792.836" x2="792.836" y1="1919" y2="1933"/>
  <text style="stroke:none;fill:black;font-family:sans-serif;font-size:13;font-weight:bold;" transform="matrix(1 0 0 1 776 1953)">Margins</text>
  <text style="stroke:none;fill:black;font-family:sans-serif;font-size:13;" transform="matrix(1 0 0 1 776 1971)">Leading and trailing margins on the left and right side of each symbol</text>
  <text style="stroke:none;fill:black;font-family:sans-serif;font-size:13;" transform="matrix(1 0 0 1 776 1989)">can be adjusted by modifying the x-location of the margin guidelines.</text>
  <text style="stroke:none;fill:black;font-family:sans-serif;font-size:13;" transform="matrix(1 0 0 1 776 2007)">Modifications are automatically applied proportionally to all</text>
  <text style="stroke:none;fill:black;font-family:sans-serif;font-size:13;" transform="matrix(1 0 0 1 776 2025)">scales and weights.</text>
  <g transform="matrix(0.2 0 0 0.2 1289 1933)">
   <path d="m14.209 9.32617 8.49609 8.54492c4.29688 4.3457 9.22852 4.05273 13.8672-1.07422l53.4668-58.9355-4.83398-4.88281-53.0762 58.3984c-1.75781 2.00195-3.41797 2.49023-5.76172 0.146484l-5.85938-5.81055c-2.34375-2.29492-1.80664-4.00391 0.195312-5.81055l57.373-54.0039-4.88281-4.83398-57.959 54.4434c-4.93164 4.58984-5.32227 9.47266-1.02539 13.8184Zm32.0801-90.9668c-2.09961 2.05078-2.24609 4.93164-1.07422 6.88477 1.17188 1.80664 3.4668 2.97852 6.68945 2.14844 7.32422-1.70898 14.9414-2.00195 22.0703 2.68555l-2.92969 7.27539c-1.70898 4.15039-0.830078 7.08008 1.85547 9.81445l11.4746 11.5723c2.44141 2.44141 4.49219 2.53906 7.32422 2.05078l5.32227-0.976562 3.32031 3.36914-0.195312 2.7832c-0.195312 2.49023 0.439453 4.39453 2.88086 6.78711l3.80859 3.71094c2.39258 2.39258 5.46875 2.53906 7.8125 0.195312l14.5508-14.5996c2.34375-2.34375 2.24609-5.32227-0.146484-7.71484l-3.85742-3.80859c-2.39258-2.39258-4.24805-3.17383-6.64062-2.97852l-2.88086 0.244141-3.22266-3.17383 1.2207-5.61523c0.634766-2.83203-0.146484-5.0293-3.07617-7.95898l-10.9863-10.9375c-16.6992-16.6016-38.8672-16.2109-53.3203-1.75781Zm7.4707 1.85547c12.1582-8.88672 28.6133-7.37305 39.7461 3.75977l12.1582 12.0605c1.17188 1.17188 1.36719 2.09961 1.02539 3.80859l-1.61133 7.42188 7.51953 7.42188 4.93164-0.292969c1.26953-0.0488281 1.66016 0.0488281 2.63672 1.02539l2.88086 2.88086-12.207 12.207-2.88086-2.88086c-0.976562-0.976562-1.12305-1.36719-1.07422-2.68555l0.341797-4.88281-7.4707-7.42188-7.61719 1.26953c-1.61133 0.341797-2.34375 0.195312-3.56445-0.976562l-10.0098-10.0098c-1.26953-1.17188-1.41602-2.00195-0.634766-3.85742l4.39453-10.4492c-7.8125-7.27539-17.9688-10.4004-28.125-7.42188-0.78125 0.195312-1.07422-0.439453-0.439453-0.976562Z"/>
  </g>
  <text style="stroke:none;fill:black;font-family:sans-serif;font-size:13;font-weight:bold;" transform="matrix(1 0 0 1 1289 1953)">Exporting</text>
  <text style="stroke:none;fill:black;font-family:sans-serif;font-size:13;" transform="matrix(1 0 0 1 1289 1971)">Symbols should be outlined when exporting to ensure the</text>
  <text style="stroke:none;fill:black;font-family:sans-serif;font-size:13;" transform="matrix(1 0 0 1 1289 1989)">design is preserved when submitting to Xcode.</text>
  <text id="template-version" style="stroke:none;fill:black;font-family:sans-serif;font-size:13;text-anchor:end;" transform="matrix(1 0 0 1 3036 1933)">Template v.6.0</text>
  <text style="stroke:none;fill:black;font-family:sans-serif;font-size:13;text-anchor:end;" transform="matrix(1 0 0 1 3036 1951)">Requires Xcode 16 or greater</text>
  <text id="descriptive-name" style="stroke:none;fill:black;font-family:sans-serif;font-size:13;text-anchor:end;" transform="matrix(1 0 0 1 3036 1969)">Generated from figure.paceman.2</text>
  <text style="stroke:none;fill:black;font-family:sans-serif;font-size:13;text-anchor:end;" transform="matrix(1 0 0 1 3036 1987)">Typeset at 100.0 points</text>
  <text style="stroke:none;fill:black;font-family:sans-serif;font-size:13;" transform="matrix(1 0 0 1 263 726)">Small</text>
  <text style="stroke:none;fill:black;font-family:sans-serif;font-size:13;" transform="matrix(1 0 0 1 263 1156)">Medium</text>
  <text style="stroke:none;fill:black;font-family:sans-serif;font-size:13;" transform="matrix(1 0 0 1 263 1586)">Large</text>
 </g>
 <g id="Guides">
  <g id="H-reference" style="fill:#27AAE1;stroke:none;" transform="matrix(1 0 0 1 339 696)">
   <path d="M0.993654 0L3.63775 0L29.3281-67.1323L30.0303-67.1323L30.0303-70.459L28.1226-70.459ZM11.6885-24.4799L46.9815-24.4799L46.2315-26.7285L12.4385-26.7285ZM55.1196 0L57.7637 0L30.6382-70.459L29.4326-70.459L29.4326-67.1323Z"/>
  </g>
  <line id="Baseline-S" style="fill:none;stroke:#27AAE1;opacity:1;stroke-width:0.5;" x1="263" x2="3036" y1="696" y2="696"/>
  <line id="Capline-S" style="fill:none;stroke:#27AAE1;opacity:1;stroke-width:0.5;" x1="263" x2="3036" y1="625.541" y2="625.541"/>
  <g id="H-reference" style="fill:#27AAE1;stroke:none;" transform="matrix(1 0 0 1 339 1126)">
   <path d="M0.993654 0L3.63775 0L29.3281-67.1323L30.0303-67.1323L30.0303-70.459L28.1226-70.459ZM11.6885-24.4799L46.9815-24.4799L46.2315-26.7285L12.4385-26.7285ZM55.1196 0L57.7637 0L30.6382-70.459L29.4326-70.459L29.4326-67.1323Z"/>
  </g>
  <line id="Baseline-M" style="fill:none;stroke:#27AAE1;opacity:1;stroke-width:0.5;" x1="263" x2="3036" y1="1126" y2="1126"/>
  <line id="Capline-M" style="fill:none;stroke:#27AAE1;opacity:1;stroke-width:0.5;" x1="263" x2="3036" y1="1055.54" y2="1055.54"/>
  <g id="H-reference" style="fill:#27AAE1;stroke:none;" transform="matrix(1 0 0 1 339 1556)">
   <path d="M0.993654 0L3.63775 0L29.3281-67.1323L30.0303-67.1323L30.0303-70.459L28.1226-70.459ZM11.6885-24.4799L46.9815-24.4799L46.2315-26.7285L12.4385-26.7285ZM55.1196 0L57.7637 0L30.6382-70.459L29.4326-70.459L29.4326-67.1323Z"/>
  </g>
  <line id="Baseline-L" style="fill:none;stroke:#27AAE1;opacity:1;stroke-width:0.5;" x1="263" x2="3036" y1="1556" y2="1556"/>
  <line id="Capline-L" style="fill:none;stroke:#27AAE1;opacity:1;stroke-width:0.5;" x1="263" x2="3036" y1="1485.54" y2="1485.54"/>
  <line id="right-margin-Black-S" style="fill:none;stroke:#00AEEF;stroke-width:0.5;opacity:1.0;" x1="2978.25" x2="2978.25" y1="600.785" y2="720.121"/>
  <line id="left-margin-Black-S" style="fill:none;stroke:#00AEEF;stroke-width:0.5;opacity:1.0;" x1="2888.55" x2="2888.55" y1="600.785" y2="720.121"/>
  <line id="right-margin-Regular-S" style="fill:none;stroke:#00AEEF;stroke-width:0.5;opacity:1.0;" x1="1492.15" x2="1492.15" y1="600.785" y2="720.121"/>
  <line id="left-margin-Regular-S" style="fill:none;stroke:#00AEEF;stroke-width:0.5;opacity:1.0;" x1="1407.53" x2="1407.53" y1="600.785" y2="720.121"/>
  <line id="right-margin-Ultralight-S" style="fill:none;stroke:#00AEEF;stroke-width:0.5;opacity:1.0;" x1="599.114" x2="599.114" y1="600.785" y2="720.121"/>
  <line id="left-margin-Ultralight-S" style="fill:none;stroke:#00AEEF;stroke-width:0.5;opacity:1.0;" x1="520.308" x2="520.308" y1="600.785" y2="720.121"/>
 </g>
 <g id="Symbols">
  <g id="Black-S" transform="matrix(1 0 0 1 2888.55 696)">
   <path class="SFSymbolsPreviewWireframe" d="M9.21606-27.8429C9.21606-29.8458 10.8398-31.4696 12.8428-31.4696L12.8428-30.7667C11.2278-30.7667 9.91894-29.4578 9.91894-27.8429Z"/>
   <path class="monochrome-0 multicolor-0:tintColor hierarchical-0:primary SFSymbolsPreviewWireframe" d="M50.2219-65.5376C55.9475-65.5376 60.4924-70.1417 60.4924-75.8082C60.4924-81.5339 55.9475-86.079 50.2219-86.079C44.5552-86.079 39.9512-81.5339 39.9512-75.8082C39.9512-70.1417 44.5552-65.5376 50.2219-65.5376ZM34.1665-24.6909L52.0518-14.5973L40.4824-4.73975C37.9441-2.4967 38.1213 0.277466 39.5969 1.9303C41.1316 3.64209 43.906 4.17334 46.562 1.87122L62.7356-11.941C64.9785-13.7709 64.6243-17.9028 61.9092-19.6736L44.3779-31.1838L47.8018-43.2844C48.2739-44.9962 50.2808-45.2323 51.2842-43.7566L56.4197-36.2012C57.6592-34.4304 59.9021-33.722 61.9092-34.6665L76.7839-41.2775C79.4993-42.458 80.5027-44.8191 79.322-47.2393C78.1416-49.6003 75.8396-50.3086 73.2424-49.1281L61.437-43.9337L53.3503-55.1488C49.1003-60.9335 43.906-63.3536 35.229-62.7043L18.7014-61.5238C16.0449-61.3467 14.2744-59.5758 13.9202-56.9197L11.6772-40.156C11.2639-37.2637 12.7397-35.1978 15.3369-34.9026C17.9932-34.6665 19.7048-36.2012 20.1179-39.0935L22.1248-52.7288L28.677-53.2009C30.0935-53.319 31.5103-52.3745 30.979-50.5447L27.2012-37.0865C24.8992-29.1179 30.0935-26.9929 34.1665-24.6909ZM2.70508 15.8606C4.47583 17.3363 7.13208 17.6315 9.61133 15.2113L24.7812 0.159424C26.0798-1.13916 26.375-1.43433 27.1423-3.3822L33.458-19.7327L31.8645-20.618C28.3818-22.5659 25.8438-24.4548 24.1318-26.5798L18.5833-7.04187L2.823 8.6593C0.284912 11.1384 0.875244 14.2079 2.70508 15.8606Z"/>
   <path class="monochrome-1 multicolor-1:custom hierarchical-1:primary SFSymbolsPreviewWireframe" d="M83.675-52.4847C85.4836-56.9617 87.8325-60.2343 88.9214-59.7946C90.01-59.3546 89.4263-55.3687 87.6177-50.892L80.9651-34.4263C79.1562-29.9495 76.8074-26.6768 75.7188-27.1166C74.6299-27.5565 75.2136-31.5424 77.0222-36.0192L83.675-52.4847Z"/>
   <path class="monochrome-2 multicolor-2:custom hierarchical-2:primary SFSymbolsPreviewWireframe" d="M21.3047-27.2385C21.3047-31.5781 17.7869-35.0962 13.447-35.0962C9.10742-35.0962 5.58936-31.5781 5.58936-27.2385C5.58936-22.8988 9.10742-19.3809 13.447-19.3809C17.7869-19.3809 21.3047-22.8988 21.3047-27.2385Z"/>
   <path class="monochrome-3 multicolor-3:tintColor hierarchical-3:primary SFSymbolsPreviewWireframe" d="M84.8193-49.5857C86.2891-53.371 86.2-54.2802 87.0847-53.9083C87.9692-53.5364 86.7393-53.1527 85.2693-49.3676L80.3787-37.621C78.9089-33.8358 78.114-29.9622 77.2292-30.334C76.3447-30.7061 78.0935-33.8159 79.563-37.6012Z"/>
   <path class="monochrome-4 multicolor-4:tintColor hierarchical-4:primary SFSymbolsPreviewWireframe" d="M17.6782-27.8429C17.6782-31.5121 16.3691-31.4696 12.8428-31.4696C9.31616-31.4696 10.4248-31.5121 10.4248-27.8429C10.4248-24.1737 9.31616-24.2163 12.8428-24.2163C16.3691-24.2163 17.6782-24.1737 17.6782-27.8429Z"/>
   <path class="monochrome-5 multicolor-5:tintColor hierarchical-5:primary SFSymbolsPreviewWireframe" d="M50.3176-68.9446C54.9702-68.9446 56.3621-71.4067 56.3621-76.1979C56.3621-81.0389 54.9702-82.2422 50.3176-82.2422C45.7131-82.2422 44.2734-81.0389 44.2734-76.1979C44.2734-71.4067 45.7131-68.9446 50.3176-68.9446Z"/>
   <path class="monochrome-6 multicolor-6:tintColor hierarchical-6:primary SFSymbolsPreviewWireframe" d="M35.8113-27.8429L57.571-15.7543L45.4822-4.87439C43.4199-2.97803 41.8652-2.64502 43.0645-1.2478C44.3115 0.199585 44.5327-1.71912 46.6912-3.66553L58.7798-14.5454C60.6025-16.0924 58.5686-17.8837 56.3621-19.3809L39.438-29.0519L45.4822-48.3938C45.866-49.8412 51.9202-49.6415 52.7354-48.3938L58.7798-39.9316C59.7871-38.4344 60.7756-37.9243 62.4065-38.7228L73.2864-43.5584C75.4927-44.5564 76.6633-43.9299 75.7041-45.9761C74.7446-47.9723 69.3523-43.3475 67.2419-42.3494L61.1975-39.9316L50.3176-53.2292C46.8643-58.1201 42.8621-58.6139 35.8113-58.0648L22.2925-59.0629C20.134-58.9133 17.9658-59.1017 17.6782-56.856L15.2605-41.1405C14.9246-38.6951 13.1499-38.9723 15.2605-38.7228C17.4189-38.5232 16.1335-38.6951 16.4692-41.1405L20.0959-56.856L34.6023-55.647C35.7534-55.7469 35.0342-51.1498 34.6023-49.6027L30.9758-37.5139C29.105-30.7765 32.5017-29.7893 35.8113-27.8429Z"/>
   <path class="monochrome-7 multicolor-7:tintColor hierarchical-7:primary SFSymbolsPreviewWireframe" d="M5.58936 12.0498C7.02832 13.2975 5.99268 12.8872 8.00708 10.8409L20.0959-0.038818C21.1511-1.13684 23.0989-3.22742 23.7224-4.87439L29.2561-17.239C29.1763-18.3989 28.179-18.4592 26.1404-20.5897L22.5137-6.08325L6.79834 9.63208C4.73584 11.7283 4.10254 10.6523 5.58936 12.0498Z"/>
  </g>
  <g id="Regular-S" transform="matrix(1 0 0 1 1407.53 696)">
   <path class="SFSymbolsPreviewWireframe" d="M16.47-30C16.47-31.6569 17.8131-33 19.47-33L19.47-32.4186C18.1342-32.4186 17.0514-31.3358 17.0514-30Z"/>
   <path class="monochrome-0 multicolor-0:tintColor hierarchical-0:primary SFSymbolsPreviewWireframe" d="M50.3906-61.1816C55.127-61.1816 58.8867-64.9902 58.8867-69.6777C58.8867-74.4141 55.127-78.1738 50.3906-78.1738C45.7031-78.1738 41.8945-74.4141 41.8945-69.6777C41.8945-64.9902 45.7031-61.1816 50.3906-61.1816ZM37.1094-27.3926L51.9043-19.043L42.334-10.8887C40.2344-9.0332 40.3809-6.73828 41.6016-5.37109C42.8711-3.95508 45.166-3.51562 47.3633-5.41992L60.7422-16.8457C62.5977-18.3594 62.3047-21.7773 60.0586-23.2422L45.5565-32.7637L48.3887-42.7734C48.7793-44.1895 50.4395-44.3848 51.2695-43.1641L55.5176-36.9141C56.543-35.4492 58.3983-34.8633 60.0586-35.6445L72.3633-41.1133C74.6094-42.0898 75.4395-44.043 74.4629-46.0449C73.4863-47.998 71.582-48.584 69.4336-47.6074L59.668-43.3105L52.9785-52.5879C49.4629-57.373 45.166-59.375 37.9883-58.8379L24.3164-57.8613C22.119-57.7148 20.6543-56.25 20.3613-54.0527L18.5059-40.1855C18.1641-37.793 19.3848-36.084 21.5332-35.8398C23.7305-35.6445 25.1465-36.9141 25.4883-39.3066L27.1483-50.5859L32.5684-50.9766C33.7401-51.0742 34.9121-50.293 34.4727-48.7793L31.3477-37.6465C29.4434-31.0547 33.7401-29.2969 37.1094-27.3926ZM11.084 6.15234C12.5488 7.37305 14.7461 7.61719 16.7969 5.61523L29.3457-6.83594C30.4199-7.91016 30.6641-8.1543 31.2988-9.76562L36.5233-23.291L35.2051-24.0234C32.3242-25.6348 30.2246-27.1973 28.8086-28.9551L24.2188-12.793L11.1815 0.195313C9.08203 2.24609 9.57031 4.78516 11.084 6.15234Z"/>
   <path class="monochrome-1 multicolor-1:custom hierarchical-1:primary SFSymbolsPreviewWireframe" d="M78.0637-50.3842C79.5598-54.0875 81.5029-56.7947 82.4036-56.4309C83.3042-56.067 82.8213-52.7698 81.3251-49.0665L75.8219-35.4458C74.3257-31.7426 72.3827-29.0353 71.4821-29.3992C70.5814-29.7631 71.0643-33.0602 72.5604-36.7636L78.0637-50.3842Z"/>
   <path class="monochrome-2 multicolor-2:custom hierarchical-2:primary SFSymbolsPreviewWireframe" d="M26.47-29.5C26.47-33.0898 23.5598-36 19.97-36C16.3801-36 13.47-33.0898 13.47-29.5C13.47-25.9102 16.3801-23 19.97-23C23.5598-23 26.47-25.9102 26.47-29.5Z"/>
   <path class="monochrome-3 multicolor-3:tintColor hierarchical-3:primary SFSymbolsPreviewWireframe" d="M79.0104-47.986C80.2261-51.1172 80.1523-51.8693 80.8842-51.5618C81.616-51.254 80.5984-50.9366 79.3826-47.8055L75.3369-38.0885C74.1211-34.9574 73.4635-31.7531 72.7317-32.0607C71.9999-32.3684 73.4465-34.9409 74.6622-38.0721Z"/>
   <path class="monochrome-4 multicolor-4:tintColor hierarchical-4:primary SFSymbolsPreviewWireframe" d="M23.47-30C23.47-33.0352 22.3871-33 19.47-33C16.5529-33 17.47-33.0352 17.47-30C17.47-26.9647 16.5529-27 19.47-27C22.3871-27 23.47-26.9647 23.47-30Z"/>
   <path class="monochrome-5 multicolor-5:tintColor hierarchical-5:primary SFSymbolsPreviewWireframe" d="M50.47-64C54.3186-64 55.47-66.0367 55.47-70C55.47-74.0046 54.3186-75 50.47-75C46.6609-75 45.47-74.0046 45.47-70C45.47-66.0367 46.6609-64 50.47-64Z"/>
   <path class="monochrome-6 multicolor-6:tintColor hierarchical-6:primary SFSymbolsPreviewWireframe" d="M38.47-30L56.47-20L46.47-11C44.7639-9.43127 43.478-9.15588 44.47-8C45.5016-6.80273 45.6846-8.38989 47.47-10L57.47-19C58.9777-20.2798 57.2952-21.7615 55.47-23L41.47-31L46.47-47C46.7874-48.1973 51.7955-48.0321 52.47-47L57.47-40C58.3032-38.7615 59.1209-38.3395 60.47-39L69.47-43C71.2952-43.8257 72.2634-43.3074 71.47-45C70.6764-46.6514 66.2157-42.8257 64.47-42L59.47-40L50.47-51C47.6132-55.0458 44.3026-55.4542 38.47-55L27.2871-55.8257C25.5016-55.7019 23.708-55.8578 23.47-54L21.47-41C21.1921-38.9771 19.7241-39.2064 21.47-39C23.2555-38.8348 22.1923-38.9771 22.47-41L25.47-54L37.47-53C38.4221-53.0826 37.8271-49.2798 37.47-48L34.47-38C32.9225-32.4266 35.7322-31.6101 38.47-30Z"/>
   <path class="monochrome-7 multicolor-7:tintColor hierarchical-7:primary SFSymbolsPreviewWireframe" d="M13.47 3C14.6603 4.0321 13.8036 3.69263 15.47 2L25.47-7C26.3429-7.9082 27.9541-9.63757 28.47-11L33.0474-21.2283C32.9814-22.1877 32.1565-22.2377 30.47-24L27.47-12L14.47 1C12.7639 2.73401 12.24 1.84399 13.47 3Z"/>
  </g>
  <g id="Ultralight-S" transform="matrix(1 0 0 1 520.308 696)">
   <path class="SFSymbolsPreviewWireframe" d="M16.114-30.192C16.114-31.4923 17.1682-32.5464 18.4685-32.5464L18.4685-32.0901C17.4201-32.0901 16.5703-31.2404 16.5703-30.192Z"/>
   <path class="monochrome-0 multicolor-0:tintColor hierarchical-0:primary SFSymbolsPreviewWireframe" d="M42.7358-54.6641C46.453-54.6641 49.4037-57.6532 49.4037-61.332C49.4037-65.0492 46.453-68 42.7358-68C39.0569-68 36.0679-65.0492 36.0679-61.332C36.0679-57.6532 39.0569-54.6641 42.7358-54.6641ZM32.3123-28.1456L43.9238-21.5927L36.4127-15.1929C34.7649-13.7367 34.8799-11.9355 35.8379-10.8625C36.8343-9.75122 38.6354-9.40637 40.3599-10.9009L50.86-19.8682C52.3162-21.0562 52.0862-23.7386 50.3235-24.8883L38.9418-32.361L41.1646-40.2169C41.4712-41.3282 42.7741-41.4814 43.4256-40.5234L46.7596-35.6183C47.5643-34.4686 49.0204-34.0088 50.3235-34.6219L59.9805-38.9139C61.7433-39.6804 62.3948-41.2133 61.6283-42.7844C60.8619-44.3173 59.3674-44.7771 57.6812-44.0107L50.0169-40.6384L44.7668-47.9196C42.0077-51.675 38.6354-53.2462 33.0021-52.8247L22.2721-52.0582C20.5475-51.9432 19.3979-50.7936 19.168-49.0692L17.7118-38.1858C17.4435-36.3081 18.4016-34.9668 20.0878-34.7753C21.8122-34.6219 22.9235-35.6183 23.1918-37.4961L24.4946-46.3483L28.7484-46.6549C29.668-46.7316 30.5879-46.1184 30.243-44.9304L27.7904-36.1931C26.2958-31.0197 29.668-29.6401 32.3123-28.1456ZM11.887-1.81873C13.0366-0.860596 14.761-0.669067 16.3705-2.24023L26.2192-12.0122C27.0623-12.8553 27.2539-13.0469 27.7521-14.3115L31.8524-24.9266L30.8178-25.5013C28.5568-26.766 26.909-27.9923 25.7977-29.3718L22.1954-16.6875L11.9635-6.4939C10.3157-4.8844 10.699-2.89172 11.887-1.81873Z"/>
   <path class="monochrome-1 multicolor-1:custom hierarchical-1:primary SFSymbolsPreviewWireframe" d="M64.4543-46.1899C65.6285-49.0964 67.1535-51.2211 67.8604-50.9355C68.5672-50.65 68.1882-48.0623 67.0139-45.1559L62.6949-34.4659C61.5206-31.5596 59.9957-29.4348 59.2889-29.7205C58.582-30.006 58.9611-32.5936 60.1352-35.5001L64.4543-46.1899Z"/>
   <path class="monochrome-2 multicolor-2:custom hierarchical-2:primary SFSymbolsPreviewWireframe" d="M23.9623-29.7996C23.9623-32.6169 21.6783-34.9009 18.8609-34.9009C16.0435-34.9009 13.7595-32.6169 13.7595-29.7996C13.7595-26.9822 16.0435-24.6981 18.8609-24.6981C21.6783-24.6981 23.9623-26.9822 23.9623-29.7996Z"/>
   <path class="monochrome-3 multicolor-3:tintColor hierarchical-3:primary SFSymbolsPreviewWireframe" d="M65.1973-44.3077C66.1514-46.7653 66.0936-47.3555 66.6679-47.1141C67.2422-46.8727 66.4436-46.6235 65.4894-44.1661L62.3143-36.54C61.36-34.0826 60.844-31.5677 60.2697-31.8092C59.6953-32.0508 60.8306-34.0697 61.7848-36.5272Z"/>
   <path class="monochrome-4 multicolor-4:tintColor hierarchical-4:primary SFSymbolsPreviewWireframe" d="M21.6078-30.192C21.6078-32.574 20.7579-32.5464 18.4685-32.5464C16.1791-32.5464 16.8988-32.574 16.8988-30.192C16.8988-27.8098 16.1791-27.8375 18.4685-27.8375C20.7579-27.8375 21.6078-27.8098 21.6078-30.192Z"/>
   <path class="monochrome-5 multicolor-5:tintColor hierarchical-5:primary SFSymbolsPreviewWireframe" d="M42.7981-56.876C45.8185-56.876 46.7222-58.4745 46.7222-61.585C46.7222-64.7279 45.8185-65.5092 42.7981-65.5092C39.8086-65.5092 38.874-64.7279 38.874-61.585C38.874-58.4745 39.8086-56.876 42.7981-56.876Z"/>
   <path class="monochrome-6 multicolor-6:tintColor hierarchical-6:primary SFSymbolsPreviewWireframe" d="M33.3802-30.192L47.507-22.3438L39.6588-15.2803C38.3198-14.0491 37.3106-13.833 38.0891-12.9258C38.8987-11.9862 39.0424-13.2318 40.4436-14.4955L48.2919-21.5588C49.4751-22.5632 48.1547-23.7262 46.7222-24.6981L35.7346-30.9768L39.6588-43.5339C39.9078-44.4736 43.8384-44.344 44.3677-43.5339L48.2919-38.0402C48.9458-37.0682 49.5875-36.7369 50.6463-37.2554L57.7098-40.3947C59.1422-41.0427 59.9021-40.6359 59.2794-41.9644C58.6566-43.2604 55.1557-40.2579 53.7856-39.6099L49.8615-38.0402L42.7981-46.6733C40.556-49.8485 37.9578-50.1691 33.3802-49.8126L24.6036-50.4606C23.2023-50.3634 21.7946-50.4858 21.6078-49.0277L20.0381-38.8251C19.8201-37.2374 18.668-37.4174 20.0381-37.2554C21.4395-37.1257 20.605-37.2374 20.8229-38.8251L23.1774-49.0277L32.5953-48.2429C33.3426-48.3077 32.8757-45.3232 32.5953-44.3188L30.2408-36.4706C29.0264-32.0964 31.2314-31.4556 33.3802-30.192Z"/>
   <path class="monochrome-7 multicolor-7:tintColor hierarchical-7:primary SFSymbolsPreviewWireframe" d="M13.7595-4.29273C14.6937-3.48267 14.0214-3.74915 15.3292-5.07751L23.1774-12.141C23.8625-12.8538 25.127-14.2111 25.5319-15.2803L29.1244-23.3077C29.0726-24.0607 28.4252-24.0999 27.1016-25.483L24.7471-16.0651L14.5444-5.86243C13.2054-4.50147 12.7942-5.19995 13.7595-4.29273Z"/>
  </g>
 </g>
</svg>
