<?xml version="1.0" encoding="UTF-8"?>
<!--Generator: Apple Native CoreSVG 341-->
<!DOCTYPE svg
PUBLIC "-//W3C//DTD SVG 1.1//EN"
       "http://www.w3.org/Graphics/SVG/1.1/DTD/svg11.dtd">
<svg version="1.1" xmlns="http://www.w3.org/2000/svg" xmlns:xlink="http://www.w3.org/1999/xlink" viewBox="0 0 3300 2200">
 <!--glyph: "", point size: 100.0, font version: "20.0d10e1", template writer version: "138.0.0"-->
 <style>.monochrome-0 {-sfsymbols-motion-group:2;-sfsymbols-layer-tags:7b9cc749cae331cf}
.monochrome-1 {-sfsymbols-motion-group:1;-sfsymbols-layer-tags:7b9cc749cae331cf}
.monochrome-2 {-sfsymbols-motion-group:0;-sfsymbols-layer-tags:7b9cc749cae331cf}

.multicolor-0:tintColor {-sfsymbols-motion-group:2;-sfsymbols-layer-tags:7b9cc749cae331cf}
.multicolor-1:custom {fill:#028267;-sfsymbols-motion-group:1;-sfsymbols-layer-tags:7b9cc749cae331cf}
.multicolor-2:systemYellowColor {-sfsymbols-motion-group:0;-sfsymbols-layer-tags:7b9cc749cae331cf}

.hierarchical-0:primary {-sfsymbols-motion-group:2;-sfsymbols-layer-tags:7b9cc749cae331cf}
.hierarchical-1:primary {-sfsymbols-motion-group:1;-sfsymbols-layer-tags:7b9cc749cae331cf}
.hierarchical-2:primary {-sfsymbols-motion-group:0;-sfsymbols-layer-tags:7b9cc749cae331cf}

.SFSymbolsPreviewWireframe {fill:none;opacity:1.0;stroke:black;stroke-width:0.5}
</style>
 <g id="Notes">
  <rect height="2200" id="artboard" style="fill:white;opacity:1" width="3300" x="0" y="0"/>
  <line style="fill:none;stroke:black;opacity:1;stroke-width:0.5;" x1="263" x2="3036" y1="292" y2="292"/>
  <text style="stroke:none;fill:black;font-family:sans-serif;font-size:13;font-weight:bold;" transform="matrix(1 0 0 1 263 322)">Weight/Scale Variations</text>
  <text style="stroke:none;fill:black;font-family:sans-serif;font-size:13;text-anchor:middle;" transform="matrix(1 0 0 1 559.711 322)">Ultralight</text>
  <text style="stroke:none;fill:black;font-family:sans-serif;font-size:13;text-anchor:middle;" transform="matrix(1 0 0 1 856.422 322)">Thin</text>
  <text style="stroke:none;fill:black;font-family:sans-serif;font-size:13;text-anchor:middle;" transform="matrix(1 0 0 1 1153.13 322)">Light</text>
  <text style="stroke:none;fill:black;font-family:sans-serif;font-size:13;text-anchor:middle;" transform="matrix(1 0 0 1 1449.84 322)">Regular</text>
  <text style="stroke:none;fill:black;font-family:sans-serif;font-size:13;text-anchor:middle;" transform="matrix(1 0 0 1 1746.56 322)">Medium</text>
  <text style="stroke:none;fill:black;font-family:sans-serif;font-size:13;text-anchor:middle;" transform="matrix(1 0 0 1 2043.27 322)">Semibold</text>
  <text style="stroke:none;fill:black;font-family:sans-serif;font-size:13;text-anchor:middle;" transform="matrix(1 0 0 1 2339.98 322)">Bold</text>
  <text style="stroke:none;fill:black;font-family:sans-serif;font-size:13;text-anchor:middle;" transform="matrix(1 0 0 1 2636.69 322)">Heavy</text>
  <text style="stroke:none;fill:black;font-family:sans-serif;font-size:13;text-anchor:middle;" transform="matrix(1 0 0 1 2933.4 322)">Black</text>
  <line style="fill:none;stroke:black;opacity:1;stroke-width:0.5;" x1="263" x2="3036" y1="1903" y2="1903"/>
  <g transform="matrix(0.2 0 0 0.2 263 1933)">
   <path d="m46.2402 4.15039c21.7773 0 39.4531-17.627 39.4531-39.4043s-17.6758-39.4043-39.4531-39.4043c-21.7285 0-39.4043 17.627-39.4043 39.4043s17.6758 39.4043 39.4043 39.4043Zm0-7.42188c-17.6758 0-31.9336-14.3066-31.9336-31.9824s14.2578-31.9824 31.9336-31.9824 31.9824 14.3066 31.9824 31.9824-14.3066 31.9824-31.9824 31.9824Zm-17.9688-31.9824c0 2.14844 1.51367 3.61328 3.75977 3.61328h10.498v10.5957c0 2.19727 1.46484 3.71094 3.61328 3.71094 2.24609 0 3.71094-1.51367 3.71094-3.71094v-10.5957h10.5957c2.19727 0 3.71094-1.46484 3.71094-3.61328 0-2.19727-1.51367-3.71094-3.71094-3.71094h-10.5957v-10.5469c0-2.24609-1.46484-3.75977-3.71094-3.75977-2.14844 0-3.61328 1.51367-3.61328 3.75977v10.5469h-10.498c-2.24609 0-3.75977 1.51367-3.75977 3.71094Z"/>
  </g>
  <g transform="matrix(0.2 0 0 0.2 281.506 1933)">
   <path d="m58.5449 14.5508c27.4902 0 49.8047-22.3145 49.8047-49.8047s-22.3145-49.8047-49.8047-49.8047-49.8047 22.3145-49.8047 49.8047 22.3145 49.8047 49.8047 49.8047Zm0-8.30078c-22.9492 0-41.5039-18.5547-41.5039-41.5039s18.5547-41.5039 41.5039-41.5039 41.5039 18.5547 41.5039 41.5039-18.5547 41.5039-41.5039 41.5039Zm-22.6562-41.5039c0 2.39258 1.66016 4.00391 4.15039 4.00391h14.3555v14.4043c0 2.44141 1.66016 4.15039 4.05273 4.15039 2.44141 0 4.15039-1.66016 4.15039-4.15039v-14.4043h14.4043c2.44141 0 4.15039-1.61133 4.15039-4.00391 0-2.44141-1.70898-4.15039-4.15039-4.15039h-14.4043v-14.3555c0-2.49023-1.70898-4.19922-4.15039-4.19922-2.39258 0-4.05273 1.70898-4.05273 4.19922v14.3555h-14.3555c-2.49023 0-4.15039 1.70898-4.15039 4.15039Z"/>
  </g>
  <g transform="matrix(0.2 0 0 0.2 304.924 1933)">
   <path d="m74.8535 28.3203c35.1074 0 63.623-28.4668 63.623-63.5742s-28.5156-63.623-63.623-63.623-63.5742 28.5156-63.5742 63.623 28.4668 63.5742 63.5742 63.5742Zm0-9.08203c-30.127 0-54.4922-24.3652-54.4922-54.4922s24.3652-54.4922 54.4922-54.4922 54.4922 24.3652 54.4922 54.4922-24.3652 54.4922-54.4922 54.4922Zm-28.8574-54.4922c0 2.58789 1.85547 4.39453 4.58984 4.39453h19.7266v19.7754c0 2.68555 1.85547 4.58984 4.44336 4.58984 2.68555 0 4.54102-1.85547 4.54102-4.58984v-19.7754h19.7754c2.68555 0 4.58984-1.80664 4.58984-4.39453 0-2.73438-1.85547-4.58984-4.58984-4.58984h-19.7754v-19.7266c0-2.73438-1.85547-4.63867-4.54102-4.63867-2.58789 0-4.44336 1.9043-4.44336 4.63867v19.7266h-19.7266c-2.73438 0-4.58984 1.85547-4.58984 4.58984Z"/>
  </g>
  <text style="stroke:none;fill:black;font-family:sans-serif;font-size:13;font-weight:bold;" transform="matrix(1 0 0 1 263 1953)">Design Variations</text>
  <text style="stroke:none;fill:black;font-family:sans-serif;font-size:13;" transform="matrix(1 0 0 1 263 1971)">Symbols are supported in up to nine weights and three scales.</text>
  <text style="stroke:none;fill:black;font-family:sans-serif;font-size:13;" transform="matrix(1 0 0 1 263 1989)">For optimal layout with text and other symbols, vertically align</text>
  <text style="stroke:none;fill:black;font-family:sans-serif;font-size:13;" transform="matrix(1 0 0 1 263 2007)">symbols with the adjacent text.</text>
  <line style="fill:none;stroke:#00AEEF;stroke-width:0.5;opacity:1.0;" x1="776" x2="776" y1="1919" y2="1933"/>
  <g transform="matrix(0.2 0 0 0.2 776 1933)">
   <path d="m16.5527 0.78125c2.58789 0 3.85742-0.976562 4.78516-3.71094l6.29883-17.2363h28.8086l6.29883 17.2363c0.927734 2.73438 2.19727 3.71094 4.73633 3.71094 2.58789 0 4.24805-1.5625 4.24805-4.00391 0-0.830078-0.146484-1.61133-0.537109-2.63672l-22.9004-60.9863c-1.12305-2.97852-3.125-4.49219-6.25-4.49219-3.02734 0-5.07812 1.46484-6.15234 4.44336l-22.9004 61.084c-0.390625 1.02539-0.537109 1.80664-0.537109 2.63672 0 2.44141 1.5625 3.95508 4.10156 3.95508Zm13.4766-28.3691 11.8652-32.8613h0.244141l11.8652 32.8613Z"/>
  </g>
  <line style="fill:none;stroke:#00AEEF;stroke-width:0.5;opacity:1.0;" x1="792.836" x2="792.836" y1="1919" y2="1933"/>
  <text style="stroke:none;fill:black;font-family:sans-serif;font-size:13;font-weight:bold;" transform="matrix(1 0 0 1 776 1953)">Margins</text>
  <text style="stroke:none;fill:black;font-family:sans-serif;font-size:13;" transform="matrix(1 0 0 1 776 1971)">Leading and trailing margins on the left and right side of each symbol</text>
  <text style="stroke:none;fill:black;font-family:sans-serif;font-size:13;" transform="matrix(1 0 0 1 776 1989)">can be adjusted by modifying the x-location of the margin guidelines.</text>
  <text style="stroke:none;fill:black;font-family:sans-serif;font-size:13;" transform="matrix(1 0 0 1 776 2007)">Modifications are automatically applied proportionally to all</text>
  <text style="stroke:none;fill:black;font-family:sans-serif;font-size:13;" transform="matrix(1 0 0 1 776 2025)">scales and weights.</text>
  <g transform="matrix(0.2 0 0 0.2 1289 1933)">
   <path d="m14.209 9.32617 8.49609 8.54492c4.29688 4.3457 9.22852 4.05273 13.8672-1.07422l53.4668-58.9355-4.83398-4.88281-53.0762 58.3984c-1.75781 2.00195-3.41797 2.49023-5.76172 0.146484l-5.85938-5.81055c-2.34375-2.29492-1.80664-4.00391 0.195312-5.81055l57.373-54.0039-4.88281-4.83398-57.959 54.4434c-4.93164 4.58984-5.32227 9.47266-1.02539 13.8184Zm32.0801-90.9668c-2.09961 2.05078-2.24609 4.93164-1.07422 6.88477 1.17188 1.80664 3.4668 2.97852 6.68945 2.14844 7.32422-1.70898 14.9414-2.00195 22.0703 2.68555l-2.92969 7.27539c-1.70898 4.15039-0.830078 7.08008 1.85547 9.81445l11.4746 11.5723c2.44141 2.44141 4.49219 2.53906 7.32422 2.05078l5.32227-0.976562 3.32031 3.36914-0.195312 2.7832c-0.195312 2.49023 0.439453 4.39453 2.88086 6.78711l3.80859 3.71094c2.39258 2.39258 5.46875 2.53906 7.8125 0.195312l14.5508-14.5996c2.34375-2.34375 2.24609-5.32227-0.146484-7.71484l-3.85742-3.80859c-2.39258-2.39258-4.24805-3.17383-6.64062-2.97852l-2.88086 0.244141-3.22266-3.17383 1.2207-5.61523c0.634766-2.83203-0.146484-5.0293-3.07617-7.95898l-10.9863-10.9375c-16.6992-16.6016-38.8672-16.2109-53.3203-1.75781Zm7.4707 1.85547c12.1582-8.88672 28.6133-7.37305 39.7461 3.75977l12.1582 12.0605c1.17188 1.17188 1.36719 2.09961 1.02539 3.80859l-1.61133 7.42188 7.51953 7.42188 4.93164-0.292969c1.26953-0.0488281 1.66016 0.0488281 2.63672 1.02539l2.88086 2.88086-12.207 12.207-2.88086-2.88086c-0.976562-0.976562-1.12305-1.36719-1.07422-2.68555l0.341797-4.88281-7.4707-7.42188-7.61719 1.26953c-1.61133 0.341797-2.34375 0.195312-3.56445-0.976562l-10.0098-10.0098c-1.26953-1.17188-1.41602-2.00195-0.634766-3.85742l4.39453-10.4492c-7.8125-7.27539-17.9688-10.4004-28.125-7.42188-0.78125 0.195312-1.07422-0.439453-0.439453-0.976562Z"/>
  </g>
  <text style="stroke:none;fill:black;font-family:sans-serif;font-size:13;font-weight:bold;" transform="matrix(1 0 0 1 1289 1953)">Exporting</text>
  <text style="stroke:none;fill:black;font-family:sans-serif;font-size:13;" transform="matrix(1 0 0 1 1289 1971)">Symbols should be outlined when exporting to ensure the</text>
  <text style="stroke:none;fill:black;font-family:sans-serif;font-size:13;" transform="matrix(1 0 0 1 1289 1989)">design is preserved when submitting to Xcode.</text>
  <text id="template-version" style="stroke:none;fill:black;font-family:sans-serif;font-size:13;text-anchor:end;" transform="matrix(1 0 0 1 3036 1933)">Template v.6.0</text>
  <text style="stroke:none;fill:black;font-family:sans-serif;font-size:13;text-anchor:end;" transform="matrix(1 0 0 1 3036 1951)">Requires Xcode 16 or greater</text>
  <text id="descriptive-name" style="stroke:none;fill:black;font-family:sans-serif;font-size:13;text-anchor:end;" transform="matrix(1 0 0 1 3036 1969)">Generated from figure.paceman.fill</text>
  <text style="stroke:none;fill:black;font-family:sans-serif;font-size:13;text-anchor:end;" transform="matrix(1 0 0 1 3036 1987)">Typeset at 100.0 points</text>
  <text style="stroke:none;fill:black;font-family:sans-serif;font-size:13;" transform="matrix(1 0 0 1 263 726)">Small</text>
  <text style="stroke:none;fill:black;font-family:sans-serif;font-size:13;" transform="matrix(1 0 0 1 263 1156)">Medium</text>
  <text style="stroke:none;fill:black;font-family:sans-serif;font-size:13;" transform="matrix(1 0 0 1 263 1586)">Large</text>
 </g>
 <g id="Guides">
  <g id="H-reference" style="fill:#27AAE1;stroke:none;" transform="matrix(1 0 0 1 339 696)">
   <path d="M0.993654 0L3.63775 0L29.3281-67.1323L30.0303-67.1323L30.0303-70.459L28.1226-70.459ZM11.6885-24.4799L46.9815-24.4799L46.2315-26.7285L12.4385-26.7285ZM55.1196 0L57.7637 0L30.6382-70.459L29.4326-70.459L29.4326-67.1323Z"/>
  </g>
  <line id="Baseline-S" style="fill:none;stroke:#27AAE1;opacity:1;stroke-width:0.5;" x1="263" x2="3036" y1="696" y2="696"/>
  <line id="Capline-S" style="fill:none;stroke:#27AAE1;opacity:1;stroke-width:0.5;" x1="263" x2="3036" y1="625.541" y2="625.541"/>
  <g id="H-reference" style="fill:#27AAE1;stroke:none;" transform="matrix(1 0 0 1 339 1126)">
   <path d="M0.993654 0L3.63775 0L29.3281-67.1323L30.0303-67.1323L30.0303-70.459L28.1226-70.459ZM11.6885-24.4799L46.9815-24.4799L46.2315-26.7285L12.4385-26.7285ZM55.1196 0L57.7637 0L30.6382-70.459L29.4326-70.459L29.4326-67.1323Z"/>
  </g>
  <line id="Baseline-M" style="fill:none;stroke:#27AAE1;opacity:1;stroke-width:0.5;" x1="263" x2="3036" y1="1126" y2="1126"/>
  <line id="Capline-M" style="fill:none;stroke:#27AAE1;opacity:1;stroke-width:0.5;" x1="263" x2="3036" y1="1055.54" y2="1055.54"/>
  <g id="H-reference" style="fill:#27AAE1;stroke:none;" transform="matrix(1 0 0 1 339 1556)">
   <path d="M0.993654 0L3.63775 0L29.3281-67.1323L30.0303-67.1323L30.0303-70.459L28.1226-70.459ZM11.6885-24.4799L46.9815-24.4799L46.2315-26.7285L12.4385-26.7285ZM55.1196 0L57.7637 0L30.6382-70.459L29.4326-70.459L29.4326-67.1323Z"/>
  </g>
  <line id="Baseline-L" style="fill:none;stroke:#27AAE1;opacity:1;stroke-width:0.5;" x1="263" x2="3036" y1="1556" y2="1556"/>
  <line id="Capline-L" style="fill:none;stroke:#27AAE1;opacity:1;stroke-width:0.5;" x1="263" x2="3036" y1="1485.54" y2="1485.54"/>
  <line id="right-margin-Black-S" style="fill:none;stroke:#00AEEF;stroke-width:0.5;opacity:1.0;" x1="2978.25" x2="2978.25" y1="600.785" y2="720.121"/>
  <line id="left-margin-Black-S" style="fill:none;stroke:#00AEEF;stroke-width:0.5;opacity:1.0;" x1="2888.55" x2="2888.55" y1="600.785" y2="720.121"/>
  <line id="right-margin-Regular-S" style="fill:none;stroke:#00AEEF;stroke-width:0.5;opacity:1.0;" x1="1492.15" x2="1492.15" y1="600.785" y2="720.121"/>
  <line id="left-margin-Regular-S" style="fill:none;stroke:#00AEEF;stroke-width:0.5;opacity:1.0;" x1="1407.53" x2="1407.53" y1="600.785" y2="720.121"/>
  <line id="right-margin-Ultralight-S" style="fill:none;stroke:#00AEEF;stroke-width:0.5;opacity:1.0;" x1="599.114" x2="599.114" y1="600.785" y2="720.121"/>
  <line id="left-margin-Ultralight-S" style="fill:none;stroke:#00AEEF;stroke-width:0.5;opacity:1.0;" x1="520.308" x2="520.308" y1="600.785" y2="720.121"/>
 </g>
 <g id="Symbols">
  <g id="Black-S" transform="matrix(1 0 0 1 2888.55 696)">
   <path class="monochrome-0 multicolor-0:tintColor hierarchical-0:primary SFSymbolsPreviewWireframe" d="M16.9861-29.9696C16.9861-31.7592 18.4365-33.2098 20.2261-33.2098L20.2261-32.5818C18.7834-32.5818 17.614-31.4124 17.614-29.9696ZM53.6221-63.6475C58.7375-63.6475 62.7983-67.761 62.7983-72.8237C62.7983-77.9392 58.7375-82 53.6221-82C48.5593-82 44.4458-77.9392 44.4458-72.8237C44.4458-67.761 48.5593-63.6475 53.6221-63.6475ZM39.2776-27.1534L55.2571-18.1354L44.9207-9.32837C42.6528-7.32434 42.811-4.8457 44.1294-3.36902C45.5007-1.83972 47.9792-1.36499 50.3525-3.42175L64.8025-15.7622C66.8064-17.3971 66.49-21.0887 64.0642-22.6708L48.4011-32.9546L51.46-43.7656C51.8818-45.295 53.6748-45.506 54.5715-44.1875L59.1597-37.4371C60.2671-35.8551 62.271-35.2223 64.0642-36.066L77.3538-41.9725C79.7798-43.0273 80.6763-45.1368 79.6216-47.2991C78.5669-49.4084 76.51-50.0414 74.1897-48.9866L63.6421-44.3457L56.4172-54.3658C52.6201-59.5341 47.9792-61.6963 40.2271-61.1161L25.4607-60.0614C23.0874-59.9032 21.5054-58.321 21.189-55.9479L19.1848-40.9706C18.8157-38.3865 20.134-36.5406 22.4546-36.277C24.8276-36.066 26.3572-37.4371 26.7263-40.0214L28.5193-52.2036L34.373-52.6255C35.6387-52.731 36.9045-51.8871 36.4299-50.2523L33.0547-38.2283C30.998-31.1088 35.6387-29.2102 39.2776-27.1534ZM11.1689 9.0769C12.751 10.3953 15.124 10.6591 17.3391 8.49683L30.8926-4.95117C32.0527-6.11133 32.3164-6.37512 33.002-8.11536L38.6448-22.7235L37.2209-23.5146C34.1094-25.2549 31.8418-26.9425 30.3125-28.8411L25.3552-11.3851L11.2742 2.64294C9.00659 4.85791 9.53393 7.60022 11.1689 9.0769Z"/>
   <path class="monochrome-1 multicolor-1:custom hierarchical-1:primary SFSymbolsPreviewWireframe" d="M27.7866-29.4296C27.7866-33.3069 24.6433-36.45 20.7661-36.45C16.8889-36.45 13.7458-33.3069 13.7458-29.4296C13.7458-25.5524 16.8889-22.4092 20.7661-22.4092C24.6433-22.4092 27.7866-25.5524 27.7866-29.4296Z"/>
   <path class="monochrome-2 multicolor-2:systemYellowColor hierarchical-2:primary SFSymbolsPreviewWireframe" d="M83.5105-51.9856C85.1267-55.9855 87.2251-58.9094 88.198-58.5164C89.1707-58.1234 88.6489-54.5623 87.033-50.5625L81.0894-35.8514C79.4734-31.8517 77.3748-28.9277 76.4021-29.3207C75.4294-29.7136 75.9509-33.2748 77.5669-37.2745L83.5105-51.9856Z"/>
  </g>
  <g id="Regular-S" transform="matrix(1 0 0 1 1407.53 696)">
   <path class="monochrome-0 multicolor-0:tintColor hierarchical-0:primary SFSymbolsPreviewWireframe" d="M16.47-30C16.47-31.6569 17.8131-33 19.47-33L19.47-32.4186C18.1342-32.4186 17.0514-31.3358 17.0514-30ZM50.3906-61.1816C55.127-61.1816 58.8867-64.9902 58.8867-69.6777C58.8867-74.4141 55.127-78.1738 50.3906-78.1738C45.7031-78.1738 41.8945-74.4141 41.8945-69.6777C41.8945-64.9902 45.7031-61.1816 50.3906-61.1816ZM37.1094-27.3926L51.9043-19.043L42.334-10.8887C40.2344-9.0332 40.3809-6.73828 41.6016-5.37109C42.8711-3.95508 45.166-3.51562 47.3633-5.41992L60.7422-16.8457C62.5977-18.3594 62.3047-21.7773 60.0586-23.2422L45.5565-32.7637L48.3887-42.7734C48.7793-44.1895 50.4395-44.3848 51.2695-43.1641L55.5176-36.9141C56.543-35.4492 58.3983-34.8633 60.0586-35.6445L72.3633-41.1133C74.6094-42.0898 75.4395-44.043 74.4629-46.0449C73.4863-47.998 71.582-48.584 69.4336-47.6074L59.668-43.3105L52.9785-52.5879C49.4629-57.373 45.166-59.375 37.9883-58.8379L24.3164-57.8613C22.119-57.7148 20.6543-56.25 20.3613-54.0527L18.5059-40.1855C18.1641-37.793 19.3848-36.084 21.5332-35.8398C23.7305-35.6445 25.1465-36.9141 25.4883-39.3066L27.1483-50.5859L32.5684-50.9766C33.7401-51.0742 34.9121-50.293 34.4727-48.7793L31.3477-37.6465C29.4434-31.0547 33.7401-29.2969 37.1094-27.3926ZM11.084 6.15234C12.5488 7.37305 14.7461 7.61719 16.7969 5.61523L29.3457-6.83594C30.4199-7.91016 30.6641-8.1543 31.2988-9.76562L36.5233-23.291L35.2051-24.0234C32.3242-25.6348 30.2246-27.1973 28.8086-28.9551L24.2188-12.793L11.1815 0.195313C9.08203 2.24609 9.57031 4.78516 11.084 6.15234Z"/>
   <path class="monochrome-1 multicolor-1:custom hierarchical-1:primary SFSymbolsPreviewWireframe" d="M26.47-29.5C26.47-33.0898 23.5598-36 19.97-36C16.3801-36 13.47-33.0898 13.47-29.5C13.47-25.9102 16.3801-23 19.97-23C23.5598-23 26.47-25.9102 26.47-29.5Z"/>
   <path class="monochrome-2 multicolor-2:systemYellowColor hierarchical-2:primary SFSymbolsPreviewWireframe" d="M78.0637-50.3842C79.5599-54.0875 81.5029-56.7947 82.4036-56.4309C83.3042-56.067 82.8213-52.7698 81.3251-49.0665L75.8219-35.4458C74.3257-31.7426 72.3827-29.0353 71.4821-29.3992C70.5814-29.7631 71.0643-33.0602 72.5605-36.7636L78.0637-50.3842Z"/>
  </g>
  <g id="Ultralight-S" transform="matrix(1 0 0 1 520.308 696)">
   <path class="monochrome-0 multicolor-0:tintColor hierarchical-0:primary SFSymbolsPreviewWireframe" d="M14.9646-28.6542C14.9646-30.2063 16.2228-31.4645 17.7749-31.4645L17.7749-30.9199C16.5236-30.9199 15.5093-29.9055 15.5093-28.6542ZM46.7402-57.864C51.177-57.864 54.699-61.4318 54.699-65.8229C54.699-70.2596 51.177-73.7816 46.7402-73.7816C42.3491-73.7816 38.7814-70.2596 38.7814-65.8229C38.7814-61.4318 42.3491-57.864 46.7402-57.864ZM34.2988-26.2117L48.1581-18.39L39.1931-10.7515C37.2262-9.01331 37.3635-6.86352 38.507-5.58276C39.6962-4.25635 41.846-3.8446 43.9043-5.62854L56.4372-16.3318C58.1753-17.7498 57.9009-20.9515 55.7968-22.3237L42.2118-31.2432L44.8649-40.6199C45.2308-41.9464 46.7859-42.1293 47.5635-40.9858L51.543-35.1311C52.5035-33.7588 54.2415-33.21 55.7968-33.9418L67.3234-39.0647C69.4274-39.9795 70.205-41.8091 69.2902-43.6844C68.3754-45.5142 66.5916-46.063 64.579-45.1482L55.4309-41.123L49.1644-49.8137C45.8712-54.2963 41.846-56.1716 35.1222-55.6685L22.3149-54.7537C20.2564-54.6165 18.8843-53.2443 18.6099-51.1859L16.8718-38.1957C16.5516-35.9543 17.6951-34.3535 19.7076-34.1248C21.766-33.9418 23.0925-35.1311 23.4127-37.3723L24.9677-47.9384L30.045-48.3043C31.1426-48.3958 32.2405-47.6639 31.8289-46.246L28.9015-35.8171C27.1176-29.6422 31.1426-27.9956 34.2988-26.2117ZM9.91925 5.21191C11.2914 6.35547 13.3497 6.58411 15.2709 4.70886L27.0261-6.95496C28.0324-7.9613 28.2611-8.18994 28.8557-9.69946L33.7498-22.3695L32.515-23.0555C29.8163-24.5651 27.8494-26.0287 26.5229-27.6754L22.2234-12.5353L10.0106-0.368408C8.04388 1.55273 8.50128 3.93127 9.91925 5.21191Z"/>
   <path class="monochrome-1 multicolor-1:custom hierarchical-1:primary SFSymbolsPreviewWireframe" d="M24.3322-28.1858C24.3322-31.5487 21.6061-34.2748 18.2433-34.2748C14.8804-34.2748 12.1544-31.5487 12.1544-28.1858C12.1544-24.823 14.8804-22.0969 18.2433-22.0969C21.6061-22.0969 24.3322-24.823 24.3322-28.1858Z"/>
   <path class="monochrome-2 multicolor-2:systemYellowColor hierarchical-2:primary SFSymbolsPreviewWireframe" d="M72.6633-47.7494C74.0649-51.2185 75.8851-53.7545 76.7288-53.4137C77.5724-53.0728 77.12-49.9841 75.7184-46.515L70.5633-33.7556C69.1617-30.2865 67.3415-27.7505 66.4979-28.0913C65.6542-28.4323 66.1066-31.5209 67.5082-34.99L72.6633-47.7494Z"/>
  </g>
 </g>
</svg>
